<svg xmlns="http://www.w3.org/2000/svg" viewBox="-1210.199 4599.519 538.414 752.938"><defs><style>.a,.b{fill:#fff;}.a,.c,.e,.f{stroke:#000;}.c,.e,.f,.i{fill:none;}.c{stroke-width:3px;}.d{fill-rule:evenodd;}.f{stroke-width:0.5px;}.g,.h{stroke:none;}</style></defs><g transform="translate(1326)"><path class="a" d="M-2535.7,5351.788v-751.77h537.414v751.77h-30.477v-729.42h-477.475v729.42Z"/><path class="a" d="M-2535.7,5114.066V4600.019h367.475v514.048h-20.84v-494.6h-326.49v494.6Z" transform="translate(84.969 129.861)"/><path class="a" d="M-2429.942,5243.927v47.382l-75.834,60.113v-64.274Z"/><path class="a" d="M-2505.776,5243.927v47.382l75.83,60.113v-64.274Z" transform="translate(400.834)"/><path class="a" d="M-2505.777,5287.293l75.822-43.5h-20.794l-55.027,29.786Z"/><path class="a" d="M-2429.957,5287.293l-75.82-43.5h20.794l55.026,29.786Z" transform="translate(400.822)"/><path class="a" d="M-2104.3,4749.619l67.893-118.141,7.515,22.814-55.489,95.327Z"/><path class="a" d="M-2028.892,4749.619l-75.41-126.7v31.376l55.49,95.327Z" transform="translate(-400.883)"/><path class="a" d="M-2505.185,4622.28l5.458,8.89h465.377l5.729-9.018Z"/><path class="a" d="M-2499.7,4632.017l.349,714.184-6.525,5.051.045-728.528Z"/><path class="a" d="M-2506.31,4631.17l.346,714.824,6.735,5.262.675-728.674Z" transform="translate(469.855)"/><path class="a" d="M-2429.775,4729.879v19.005l-70-117.443h13.47Z"/><path class="a" d="M-2499.779,4729.879v19.005l67.366-117.443h-13.117Z" transform="translate(396.004)"/><g class="b" transform="translate(-2431 4749)"><path class="g" d="M 323.598388671875 3.74217700958252 L 3.943965435028076 3.74217700958252 L 1.102945804595947 0.5000104308128357 L 326.0059509277344 0.5000104308128357 L 323.598388671875 3.74217700958252 Z"/><path class="h" d="M 323.346923828125 3.24217700958252 L 325.0119018554688 1.000010371208191 L 2.205855131149292 1.000010371208191 L 4.170602798461914 3.24217700958252 L 323.346923828125 3.24217700958252 M 323.8498840332031 4.24217700958252 L 3.717291593551636 4.24217700958252 L 2.842170943040401e-14 1.041666655510198e-05 L 327 1.041666655510198e-05 L 323.8498840332031 4.24217700958252 Z"/></g><g class="b" transform="translate(-2426.379 4745.621) rotate(90)"><path class="g" d="M 4.076099395751953 4.079489231109619 L 7.504539489746094 0.9256088137626648 L 496.5381469726563 1.039247632026672 L 498.3387756347656 4.050802230834961 L 4.076099395751953 4.079489231109619 Z"/><path class="h" d="M 5.358175754547119 3.57941460609436 L 497.4572143554688 3.550853252410889 L 496.2544555664063 1.539181709289551 L 7.6994309425354 1.425654172897339 L 5.358175754547119 3.57941460609436 M 2.793955087661743 4.579563617706299 L 7.309579849243164 0.4255634844303131 L 496.82177734375 0.5393134951591492 L 499.22021484375 4.550751209259033 L 2.793955087661743 4.579563617706299 Z"/></g><g class="b" transform="translate(-2103.412 4745.621) rotate(90)"><path class="g" d="M 7.504349708557129 4.075491905212402 L 4.076957225799561 0.9256114363670349 L 498.3382873535156 0.9542360901832581 L 496.5382385253906 3.961915493011475 L 7.504349708557129 4.075491905212402 Z"/><path class="h" d="M 7.699250221252441 3.575446605682373 L 496.2547607421875 3.461981296539307 L 497.4563598632813 1.454185009002686 L 5.360090255737305 1.42568576335907 L 7.699250221252441 3.575446605682373 M 7.309579849243164 4.575537204742432 L 2.793955087661743 0.4255371689796448 L 499.22021484375 0.4542871713638306 L 496.82177734375 4.461849689483643 L 7.309579849243164 4.575537204742432 Z"/></g><g class="a" transform="translate(-2431 5244)"><rect class="g" width="326" height="48"/><rect class="i" x="0.5" y="0.5" width="325" height="47"/></g><g class="b" transform="translate(-2427 5241)"><path class="g" d="M 322.5804748535156 3.411139965057373 L -2.54426121711731 2.978750228881836 L 0.06313804537057877 1.226165175437927 L 319.2120666503906 1.416409373283386 L 322.5804748535156 3.411139965057373 Z"/><path class="h" d="M 320.750732421875 2.908705711364746 L 319.074951171875 1.916327834129333 L 0.2154610753059387 1.726256132125854 L -0.9072956442832947 2.480926513671875 L 320.750732421875 2.908705711364746 M 324.41015625 3.91357421875 L -4.181164741516113 3.476574182510376 L -0.08912304788827896 0.72607421875 L 319.34912109375 0.916490912437439 L 324.41015625 3.91357421875 Z"/></g></g><line class="c" x1="1" y2="504" transform="translate(-1117.5 4742.5)"/><line class="c" x1="1" y2="504" transform="translate(-767.5 4742.5)"/><g class="b" transform="translate(-1173 4985)"><path class="g" d="M 68.43359375 18.75798225402832 L -0.279785692691803 16.27604293823242 L -0.279785692691803 -6.072804927825928 L 68.43359375 0.4547582268714905 L 68.43359375 18.75798225402832 Z"/><path class="h" d="M 67.93359375 18.23958969116211 L 67.93359375 0.9095112085342407 L 0.2202142924070358 -5.523055076599121 L 0.2202142924070358 15.7937707901001 L 67.93359375 18.23958969116211 M 68.93359375 19.27636337280273 L -0.779785692691803 16.75830459594727 L -0.779785692691803 -6.622555732727051 L 68.93359375 4.296874976716936e-06 L 68.93359375 19.27636337280273 Z"/></g><g class="b" transform="translate(-777.851 4985)"><path class="g" d="M 67.35126495361328 18.77636337280273 L -0.2797839045524597 18.77636337280273 L -0.2797839045524597 0.4540804326534271 L 67.35126495361328 -6.07198429107666 L 67.35126495361328 18.77636337280273 Z"/><path class="h" d="M 66.85126495361328 18.27636337280273 L 66.85126495361328 -5.521412372589111 L 0.2202160805463791 0.9081575274467468 L 0.2202160805463791 18.27636337280273 L 66.85126495361328 18.27636337280273 M 67.85126495361328 19.27636337280273 L -0.7797839045524597 19.27636337280273 L -0.7797839045524597 4.296874976716936e-06 L 67.85126495361328 -6.622555732727051 L 67.85126495361328 19.27636337280273 Z"/></g><g class="b" transform="translate(-1166 4904)"><path class="g" d="M 24.5 20.5 L 0.5 20.5 L 0.5 1.344396710395813 L 24.5 0.5175198912620544 L 24.5 20.5 Z"/><path class="h" d="M 24 20 L 24 1.035049438476563 L 1 1.827473044395447 L 1 20 L 24 20 M 25 21 L -1.77635683940025e-15 21 L -1.77635683940025e-15 0.861329972743988 L 25 0 L 25 21 Z"/></g><g class="b" transform="translate(-1142 4904)"><path class="g" d="M 7.364743232727051 20.50000381469727 L 0.5000030398368835 20.50000381469727 L 0.5000030398368835 0.6345173716545105 L 7.364743232727051 2.563900470733643 L 7.364743232727051 20.50000381469727 Z"/><path class="h" d="M 6.864743232727051 20.00000381469727 L 6.864743232727051 2.942743301391602 L 1.000003099441528 1.294417262077332 L 1.000003099441528 20.00000381469727 L 6.864743232727051 20.00000381469727 M 7.864743232727051 21.00000381469727 L 3.046875008294592e-06 21.00000381469727 L 3.046875008294592e-06 -0.02538531273603439 L 7.864743232727051 2.185054779052734 L 7.864743232727051 21.00000381469727 Z"/></g><g transform="translate(415.444)"><g class="b" transform="translate(-1159.136 4904)"><path class="g" d="M 24.49627876281738 20.5 L 0.4999984204769135 20.5 L 0.4999984204769135 0.5175225138664246 L 24.49627876281738 1.344394207000732 L 24.49627876281738 20.5 Z"/><path class="h" d="M 23.99627876281738 20 L 23.99627876281738 1.827468395233154 L 0.9999984502792358 1.035055041313171 L 0.9999984502792358 20 L 23.99627876281738 20 M 24.99627876281738 21 L -1.572265659888217e-06 21 L -1.572265659888217e-06 0 L 24.99627876281738 0.861329972743988 L 24.99627876281738 21 Z"/></g><g class="b" transform="translate(-1166 4904)"><path class="g" d="M 7.363577365875244 20.50000381469727 L 0.4999974966049194 20.50000381469727 L 0.4999974966049194 2.563880920410156 L 7.363577365875244 0.6345393061637878 L 7.363577365875244 20.50000381469727 Z"/><path class="h" d="M 6.863577365875244 20.00000381469727 L 6.863577365875244 1.294471144676208 L 0.9999974966049194 2.942714214324951 L 0.9999974966049194 20.00000381469727 L 6.863577365875244 20.00000381469727 M 7.863577365875244 21.00000381469727 L -2.509155365260085e-06 21.00000381469727 L -2.509155365260085e-06 2.185054779052734 L 7.863577365875244 -0.02538531273603439 L 7.863577365875244 21.00000381469727 Z"/></g></g><g transform="translate(0 -45)"><g class="b" transform="translate(-1169.904 4969)"><path class="g" d="M 455.3088684082031 52.5 L 0.5000300407409668 52.5 L 0.5000300407409668 0.5 L 455.3088684082031 0.5 L 455.3088684082031 52.5 Z"/><path class="h" d="M 454.808837890625 52 L 454.808837890625 1 L 1.000007152557373 1 L 1.000007152557373 52 L 454.808837890625 52 M 455.808837890625 53 L 7.180606644396903e-06 53 L 7.180606644396903e-06 0 L 455.808837890625 0 L 455.808837890625 53 Z"/></g><line class="c" x2="405.942" transform="translate(-1144.471 4981.5)"/><line class="c" x2="394" transform="translate(-1138.5 4959.5)"/><line class="c" x2="405.942" transform="translate(-1144.471 5007.5)"/><g transform="translate(1326)"><g class="b" transform="translate(-2315 4950)"><path class="g" d="M 73.5 123.0869140625 L 0.5 123.0869140625 L 0.5 -5.703122138977051 L 73.5 -5.703122138977051 L 73.5 123.0869140625 Z"/><path class="h" d="M 73 122.5869140625 L 73 -5.203122138977051 L 1 -5.203122138977051 L 1 122.5869140625 L 73 122.5869140625 M 74 123.5869140625 L 0 123.5869140625 L 0 -6.203122138977051 L 74 -6.203122138977051 L 74 123.5869140625 Z"/></g><g transform="translate(1)"><g class="a" transform="translate(-2295 5136)"><rect class="g" width="34" height="4"/><rect class="i" x="0.5" y="0.5" width="33" height="3"/></g><g class="a" transform="translate(-2291 5139)"><rect class="g" width="26" height="9"/><rect class="i" x="0.5" y="0.5" width="25" height="8"/></g><g class="a" transform="translate(-2295 5148)"><rect class="g" width="34" height="3"/><rect class="i" x="0.5" y="0.5" width="33" height="2"/></g><g class="b" transform="translate(-2284 5151)"><path class="g" d="M 8.730774879455566 10.50000190734863 L 2.921811103820801 10.50000190734863 L 0.7026281356811523 -0.5551778674125671 L 11.4541597366333 -0.5551778674125671 L 8.730774879455566 10.50000190734863 Z"/><path class="h" d="M 8.339006423950195 10.00000190734863 L 10.81604766845703 -0.05517788976430893 L 1.312969088554382 -0.05517788976430893 L 3.331415176391602 10.00000190734863 L 8.339006423950195 10.00000190734863 M 9.122554779052734 11.00000190734863 L 2.512205123901367 11.00000190734863 L 0.09228515625 -1.055177927017212 L 12.09228515625 -1.055177927017212 L 9.122554779052734 11.00000190734863 Z"/></g><g class="a" transform="translate(-2285 5133)"><rect class="g" width="13" height="4"/><rect class="i" x="0.5" y="0.5" width="12" height="3"/></g><g class="a" transform="translate(-2291 5126)"><rect class="g" width="26" height="8"/><rect class="i" x="0.5" y="0.5" width="25" height="7"/></g><g class="a" transform="translate(-2286 5109)"><rect class="g" width="16" height="18"/><rect class="i" x="0.5" y="0.5" width="15" height="17"/></g><path class="a" d="M-2268.76,5109.616H-2287.7v-5.22l-16.141-56.218h-5.043v-3.336h61.489v3.336h-5.3l-16.061,56.218Z"/><g class="a" transform="translate(-2288 5011)"><rect class="g" width="20" height="24"/><rect class="i" x="0.5" y="0.5" width="19" height="23"/></g><g class="a" transform="translate(-2280 5034)"><rect class="g" width="4" height="11"/><rect class="i" x="0.5" y="0.5" width="3" height="10"/></g><g class="a" transform="translate(-2270 5034)"><rect class="g" width="2" height="11"/><rect class="i" x="0.5" y="0.5" width="1" height="10"/></g><g class="a" transform="translate(-2259.5 5034.5) rotate(90)"><rect class="g" width="1" height="37"/><rect class="i" x="0.5" y="0.5" height="36"/></g><g class="a" transform="translate(-2288 5034)"><rect class="g" width="2" height="11"/><rect class="i" x="0.5" y="0.5" width="1" height="10"/></g></g></g><g transform="translate(-962 4962)"><path class="d" d="M0,47.83l.989-.985,5.468,5.447V50.306L1.979,45.859,2.992,44.85,6.456,48.3V46.294L3.992,43.848l1-1,2.878,2.869v9.956Z" transform="translate(0 -37.794)"/><path class="d" d="M110.184,47.891l-.988-.985-5.468,5.447V50.364l4.472-4.441-1.012-1.009-3.46,3.455V46.36l2.464-2.452-1-1-2.879,2.872V55.74Z" transform="translate(-90.184 -37.847)"/><path class="d" d="M79.1,20.06l-.711-.709V.769L79.1.06l.711.709V19.359Z" transform="translate(-69.099 -0.06)"/><path class="d" d="M52.5,18.67V22.4L50.63,20.533Z" transform="translate(-44.629 -16.471)"/><path class="d" d="M102.39,18.59l1.842,1.836c-.466.457-1.374,1.433-1.842,1.9Z" transform="translate(-90.254 -16.401)"/></g></g><g class="b" transform="translate(-1167 4970)"><path class="g" d="M 15.04699802398682 10.57779693603516 L 4.027747631072998 9.454733848571777 L 4.021727561950684 9.454113960266113 L 4.015687465667725 9.453653335571289 L -1.954859852790833 8.990821838378906 L 3.144516706466675 -4.653316497802734 L 15.04699802398682 -4.653316497802734 L 15.04699802398682 10.57779693603516 Z"/><path class="h" d="M 14.54699802398682 10.02424144744873 L 14.54699802398682 -4.153316497802734 L 3.491429567337036 -4.153316497802734 L -1.253949761390686 8.543649673461914 L 4.054337501525879 8.955143928527832 L 4.066397666931152 8.956083297729492 L 4.078437805175781 8.957304000854492 L 14.54699802398682 10.02424144744873 M 15.54699802398682 11.13134384155273 L 3.977047681808472 9.952153205871582 L -2.655762434005737 9.437983512878418 L 2.797607660293579 -5.153316497802734 L 15.54699802398682 -5.153316497802734 L 15.54699802398682 11.13134384155273 Z"/></g><path class="e" d="M4.783,14.686,10.31.168" transform="translate(-1162.5 4965.046)"/><g transform="translate(437.014)"><g class="b" transform="translate(-1167 4970)"><path class="g" d="M -2.155759334564209 10.57778930664063 L -2.155759334564209 -4.653316497802734 L 9.744831085205078 -4.653316497802734 L 14.84345149993896 8.990825653076172 L 8.87384033203125 9.453653335571289 L 8.867810249328613 9.454113960266113 L 8.861790657043457 9.454733848571777 L -2.155759334564209 10.57778930664063 Z"/><path class="h" d="M -1.655759334564209 10.02423286437988 L 8.811080932617188 8.957313537597656 L 8.823121070861816 8.956083297729492 L 8.835190773010254 8.955143928527832 L 14.14258861541748 8.543657302856445 L 9.397911071777344 -4.153316497802734 L -1.655759334564209 -4.153316497802734 L -1.655759334564209 10.02423286437988 M -2.655759334564209 11.13134384155273 L -2.655759334564209 -5.153316497802734 L 10.09176063537598 -5.153316497802734 L 15.54432106018066 9.437983512878418 L 8.912490844726563 9.952153205871582 L -2.655759334564209 11.13134384155273 Z"/></g><path class="e" d="M10.309,14.686,4.783.168" transform="translate(-1173.701 4965.046)"/></g><path class="a" d="M-1135.133,4976.562h-9.65v4.963l7.243.7,6.994.671-4.586-6.333"/><line class="e" y2="6" transform="translate(-1135.5 4976.5)"/><g transform="translate(392.236)"><path class="a" d="M-1140.2,4976.562h9.653v4.963l-7.245.7-7,.671,4.587-6.333" transform="translate(0)"/><line class="e" y2="6" transform="translate(-1139.829 4976.5)"/></g><line class="f" x2="19" transform="translate(-960.5 5059.5)"/><line class="f" x2="51" transform="translate(-976.5 5003)"/></svg>