<svg xmlns="http://www.w3.org/2000/svg" xmlns:xlink="http://www.w3.org/1999/xlink" viewBox="16480 4245 175 37.215">
  <defs>
    <style>
      .cls-1 {
        fill: rgba(178,140,36,0.1);
        stroke: #d5b250;
        stroke-width: 1.5px;
      }

      .cls-2 {
        fill: #deb84e;
      }

      .cls-3 {
        stroke: none;
      }

      .cls-4 {
        fill: none;
      }

      .cls-5 {
        filter: url(#Path_120);
      }
    </style>
    <filter id="Path_120" x="16506.229" y="4248.359" width="124.691" height="33.855" filterUnits="userSpaceOnUse">
      <feOffset dy="3" input="SourceAlpha"/>
      <feGaussianBlur stdDeviation="3" result="blur"/>
      <feFlood flood-opacity="0.161"/>
      <feComposite operator="in" in2="blur"/>
      <feComposite in="SourceGraphic"/>
    </filter>
  </defs>
  <g id="Learn_More" data-name="Learn More" transform="translate(15590 3266)">
    <g id="Rectangle_143" data-name="Rectangle 143" class="cls-1" transform="translate(890 979)">
      <rect class="cls-3" width="175" height="36" rx="10"/>
      <rect class="cls-4" x="0.75" y="0.75" width="173.5" height="34.5" rx="9.25"/>
    </g>
    <g class="cls-5" transform="matrix(1, 0, 0, 1, -15590, -3266)">
      <path id="Path_120-2" data-name="Path 120" class="cls-2" d="M-51.439-1.117h7.724V0h-9.056V-15.641h1.332ZM-36.98.215a5.106,5.106,0,0,1-2.095-.424,4.906,4.906,0,0,1-1.649-1.182,5.432,5.432,0,0,1-1.08-1.8,6.529,6.529,0,0,1-.387-2.288V-5.94a6.978,6.978,0,0,1,.4-2.433,5.727,5.727,0,0,1,1.09-1.858,4.889,4.889,0,0,1,1.584-1.187,4.427,4.427,0,0,1,1.9-.419,4.634,4.634,0,0,1,1.966.4,4.052,4.052,0,0,1,1.445,1.106,4.859,4.859,0,0,1,.886,1.687,7.241,7.241,0,0,1,.3,2.138v.784h-8.293v.247a5.494,5.494,0,0,0,.29,1.8,4.528,4.528,0,0,0,.816,1.466,3.863,3.863,0,0,0,1.257.983,3.62,3.62,0,0,0,1.622.36,4.188,4.188,0,0,0,1.821-.376,4.038,4.038,0,0,0,1.434-1.2l.806.612a5.564,5.564,0,0,1-.671.795,4.035,4.035,0,0,1-.886.655,4.771,4.771,0,0,1-1.139.44A5.76,5.76,0,0,1-36.98.215Zm-.236-10.957a3.271,3.271,0,0,0-1.354.279,3.369,3.369,0,0,0-1.1.795,4.217,4.217,0,0,0-.784,1.241,5.968,5.968,0,0,0-.414,1.606H-33.9v-.14a5.187,5.187,0,0,0-.236-1.413,3.768,3.768,0,0,0-.628-1.208,3.1,3.1,0,0,0-1.026-.843A3.067,3.067,0,0,0-37.216-10.742ZM-22.779,0a3.693,3.693,0,0,1-.167-.736q-.059-.435-.081-.886a4.567,4.567,0,0,1-.687.709,4.549,4.549,0,0,1-.892.58,5.394,5.394,0,0,1-1.085.4,5.171,5.171,0,0,1-1.278.15A4.564,4.564,0,0,1-28.51-.032a3.447,3.447,0,0,1-1.182-.693,3.13,3.13,0,0,1-.757-1.047,3.178,3.178,0,0,1-.269-1.311,3.191,3.191,0,0,1,.365-1.531A3.311,3.311,0,0,1-29.3-5.774a5.141,5.141,0,0,1,1.67-.73,8.886,8.886,0,0,1,2.208-.252h2.385V-8.078a2.546,2.546,0,0,0-.768-1.96,3.175,3.175,0,0,0-2.24-.714,4.061,4.061,0,0,0-1.246.183,3.146,3.146,0,0,0-.983.5,2.4,2.4,0,0,0-.645.747,1.87,1.87,0,0,0-.231.908l-1.289-.011a2.689,2.689,0,0,1,.322-1.268,3.526,3.526,0,0,1,.908-1.09,4.648,4.648,0,0,1,1.407-.768,5.44,5.44,0,0,1,1.821-.29,5.842,5.842,0,0,1,1.7.236,3.709,3.709,0,0,1,1.337.709,3.217,3.217,0,0,1,.87,1.182,4.083,4.083,0,0,1,.312,1.654v5.629q0,.3.021.623t.07.623q.048.3.113.575a3.024,3.024,0,0,0,.15.478V0Zm-4.039-.924A4.525,4.525,0,0,0-25.523-1.1a4.178,4.178,0,0,0,1.08-.489,3.82,3.82,0,0,0,.838-.725,3.653,3.653,0,0,0,.569-.9V-5.769h-2.2a8,8,0,0,0-1.767.177,4.3,4.3,0,0,0-1.316.51,2.408,2.408,0,0,0-.822.811,2.069,2.069,0,0,0-.285,1.08,2.169,2.169,0,0,0,.183.886,2.11,2.11,0,0,0,.521.72A2.482,2.482,0,0,0-27.9-1.1,3.135,3.135,0,0,0-26.818-.924Zm13.857-9.6a4.8,4.8,0,0,0-.87-.075,3.408,3.408,0,0,0-1.182.193,2.965,2.965,0,0,0-.929.542,3.171,3.171,0,0,0-.677.827,4.588,4.588,0,0,0-.435,1.058V0h-1.278V-11.623h1.257l.021,1.848a3.847,3.847,0,0,1,1.284-1.509,3.453,3.453,0,0,1,1.993-.553,2.819,2.819,0,0,1,.483.043,1.609,1.609,0,0,1,.365.1Zm3.255-1.1.043,1.987a5.2,5.2,0,0,1,.693-.9,4.218,4.218,0,0,1,.875-.7,4.216,4.216,0,0,1,1.042-.446,4.38,4.38,0,0,1,1.182-.156,4.777,4.777,0,0,1,1.558.236,2.806,2.806,0,0,1,1.166.752,3.406,3.406,0,0,1,.73,1.327,6.652,6.652,0,0,1,.252,1.96V0H-3.443V-7.573a4.984,4.984,0,0,0-.193-1.5,2.43,2.43,0,0,0-.548-.967,1.994,1.994,0,0,0-.865-.521,3.872,3.872,0,0,0-1.133-.156,3.233,3.233,0,0,0-1.246.231,3.413,3.413,0,0,0-.988.618,4.115,4.115,0,0,0-.741.886A5.088,5.088,0,0,0-9.652-7.96V0H-10.93V-11.623ZM8.556-15.641l5.769,13.8,5.79-13.8h1.762V0H20.555V-6.832l.107-6.961L14.84,0H13.82l-5.8-13.739.107,6.907V0H6.805V-15.641ZM24.831-5.983A7.137,7.137,0,0,1,25.2-8.325a5.548,5.548,0,0,1,1.047-1.853A4.793,4.793,0,0,1,27.881-11.4a5.023,5.023,0,0,1,2.127-.44,5.113,5.113,0,0,1,2.154.44A4.779,4.779,0,0,1,33.8-10.178a5.477,5.477,0,0,1,1.042,1.853,7.233,7.233,0,0,1,.365,2.342v.354a7.233,7.233,0,0,1-.365,2.342A5.477,5.477,0,0,1,33.8-1.434,4.733,4.733,0,0,1,32.167-.22,5.1,5.1,0,0,1,30.03.215,5.1,5.1,0,0,1,27.892-.22a4.787,4.787,0,0,1-1.638-1.214A5.5,5.5,0,0,1,25.2-3.287a7.137,7.137,0,0,1-.371-2.342Zm1.289.354a6.34,6.34,0,0,0,.258,1.821,4.689,4.689,0,0,0,.752,1.515,3.685,3.685,0,0,0,1.225,1.037A3.528,3.528,0,0,0,30.03-.87a3.5,3.5,0,0,0,1.67-.387,3.7,3.7,0,0,0,1.219-1.037,4.689,4.689,0,0,0,.752-1.515,6.34,6.34,0,0,0,.258-1.821v-.354a6.264,6.264,0,0,0-.258-1.8,4.754,4.754,0,0,0-.752-1.52,3.7,3.7,0,0,0-1.23-1.047,3.52,3.52,0,0,0-1.681-.392,3.434,3.434,0,0,0-1.66.392A3.733,3.733,0,0,0,27.129-9.3a4.754,4.754,0,0,0-.752,1.52,6.264,6.264,0,0,0-.258,1.8Zm17.112-4.9a4.8,4.8,0,0,0-.87-.075,3.408,3.408,0,0,0-1.182.193,2.965,2.965,0,0,0-.929.542,3.171,3.171,0,0,0-.677.827,4.588,4.588,0,0,0-.435,1.058V0H37.861V-11.623h1.257l.021,1.848a3.847,3.847,0,0,1,1.284-1.509,3.453,3.453,0,0,1,1.993-.553,2.819,2.819,0,0,1,.483.043,1.609,1.609,0,0,1,.365.1ZM49.559.215a5.106,5.106,0,0,1-2.095-.424,4.906,4.906,0,0,1-1.649-1.182,5.432,5.432,0,0,1-1.08-1.8,6.529,6.529,0,0,1-.387-2.288V-5.94a6.978,6.978,0,0,1,.4-2.433,5.727,5.727,0,0,1,1.09-1.858,4.889,4.889,0,0,1,1.584-1.187,4.427,4.427,0,0,1,1.9-.419,4.634,4.634,0,0,1,1.966.4,4.052,4.052,0,0,1,1.445,1.106,4.859,4.859,0,0,1,.886,1.687,7.241,7.241,0,0,1,.3,2.138v.784H45.627v.247a5.494,5.494,0,0,0,.29,1.8,4.528,4.528,0,0,0,.816,1.466,3.863,3.863,0,0,0,1.257.983,3.62,3.62,0,0,0,1.622.36,4.188,4.188,0,0,0,1.821-.376,4.038,4.038,0,0,0,1.434-1.2l.806.612A5.564,5.564,0,0,1,53-1.042a4.035,4.035,0,0,1-.886.655,4.771,4.771,0,0,1-1.139.44A5.76,5.76,0,0,1,49.559.215Zm-.236-10.957a3.271,3.271,0,0,0-1.354.279,3.369,3.369,0,0,0-1.1.795,4.217,4.217,0,0,0-.784,1.241,5.968,5.968,0,0,0-.414,1.606h6.972v-.14a5.187,5.187,0,0,0-.236-1.413,3.768,3.768,0,0,0-.628-1.208,3.1,3.1,0,0,0-1.026-.843A3.067,3.067,0,0,0,49.323-10.742Z" transform="translate(16568 4270)"/>
    </g>
  </g>
</svg>
