<svg xmlns="http://www.w3.org/2000/svg" viewBox="6410 381 20 20"><defs><style>.a{fill:#fff;}.b{fill:#222;}</style></defs><g transform="translate(5242 -1291)"><rect class="a" width="20" height="20" rx="5" transform="translate(1168 1672)"/><g transform="translate(1171.333 1677)"><g transform="translate(0 0)"><path class="b" d="M13,58.69a5.326,5.326,0,0,1-1.531.42,2.678,2.678,0,0,0,1.172-1.475,5.377,5.377,0,0,1-1.695.647A2.669,2.669,0,0,0,6.4,60.715a7.572,7.572,0,0,1-5.5-2.787,2.67,2.67,0,0,0,.825,3.56,2.667,2.667,0,0,1-1.208-.335v.033A2.67,2.67,0,0,0,2.663,63.8a2.7,2.7,0,0,1-.7.093,2.56,2.56,0,0,1-.5-.05A2.668,2.668,0,0,0,3.949,65.7a5.351,5.351,0,0,1-3.312,1.14A5.668,5.668,0,0,1,0,66.8,7.539,7.539,0,0,0,4.089,68a7.536,7.536,0,0,0,7.588-7.588l-.009-.345A5.326,5.326,0,0,0,13,58.69Z" transform="translate(-0.001 -57.441)"/></g></g></g></svg>