<svg xmlns="http://www.w3.org/2000/svg" viewBox="6380 413 20 20"><defs><style>.a{fill:#fff;}.b{fill:#222;}</style></defs><g transform="translate(5076 -1251)"><rect class="a" width="20" height="20" rx="5" transform="translate(1304 1664)"/><g transform="translate(1300.5 1667)"><path class="b" d="M17.721,10.606h-.8l0-.462a.375.375,0,0,1,.375-.373h.051a.376.376,0,0,1,.376.373Zm-2.985-.991a.34.34,0,0,0-.367.3v2.248a.375.375,0,0,0,.735,0V9.918A.34.34,0,0,0,14.736,9.616Zm4.847-1.257v4.277A1.929,1.929,0,0,1,17.607,14.5H9.477A1.929,1.929,0,0,1,7.5,12.635V8.358A1.929,1.929,0,0,1,9.477,6.493h8.13A1.929,1.929,0,0,1,19.583,8.358ZM10.019,13.1v-4.5h1.008V7.927l-2.686,0v.656l.839,0V13.1ZM13.04,9.265H12.2v2.406a4.264,4.264,0,0,1,0,.583c-.068.187-.375.385-.5.02a4.788,4.788,0,0,1,0-.587l0-2.422h-.836l0,2.384c0,.365-.008.638,0,.762.02.219.013.474.216.619a1.015,1.015,0,0,0,1.284-.43l0,.5h.675V9.265Zm2.688,2.755,0-2c0-.763-.571-1.22-1.346-.6l0-1.489h-.839l0,5.138.69-.01.063-.32C15.175,13.545,15.729,12.991,15.728,12.02Zm2.629-.265-.63,0c0,.025,0,.054,0,.085v.352a.344.344,0,0,1-.344.341h-.123a.344.344,0,0,1-.345-.341V11.27h1.443v-.543a8.566,8.566,0,0,0-.043-1.02c-.1-.718-1.111-.831-1.619-.464a.949.949,0,0,0-.353.474,2.671,2.671,0,0,0-.107.846v1.194C16.234,13.742,18.645,13.462,18.357,11.755ZM15.126,5.273a.572.572,0,0,0,.2.255.585.585,0,0,0,.344.1.535.535,0,0,0,.322-.1.772.772,0,0,0,.236-.3l-.016.33h.937V1.569h-.737v3.1a.307.307,0,0,1-.614,0v-3.1h-.769V4.256c0,.342.006.57.016.686A1.155,1.155,0,0,0,15.126,5.273ZM12.288,3.024a3.314,3.314,0,0,1,.1-.9.959.959,0,0,1,.979-.713,1.162,1.162,0,0,1,.557.126.929.929,0,0,1,.359.327,1.289,1.289,0,0,1,.173.415,3.307,3.307,0,0,1,.047.652V3.942a5.453,5.453,0,0,1-.044.814,1.29,1.29,0,0,1-.185.484.875.875,0,0,1-.36.331,1.15,1.15,0,0,1-.508.107,1.411,1.411,0,0,1-.541-.091.743.743,0,0,1-.345-.276,1.226,1.226,0,0,1-.176-.447,4.3,4.3,0,0,1-.052-.785V3.024Zm.734,1.582a.374.374,0,1,0,.744,0V2.486a.374.374,0,1,0-.744,0ZM10.429,5.677h.884V2.622L12.358.005h-.966l-.555,1.944L10.274,0H9.317l1.111,2.624Z"/></g></g></svg>