<svg xmlns="http://www.w3.org/2000/svg" xmlns:xlink="http://www.w3.org/1999/xlink" viewBox="14127 4244 166 38.195">
  <defs>
    <style>
      .cls-1 {
        fill: rgba(178,140,36,0.1);
        stroke: #d5b250;
      }

      .cls-2 {
        fill: #f1d482;
      }

      .cls-3 {
        stroke: none;
      }

      .cls-4 {
        fill: none;
      }

      .cls-5 {
        filter: url(#Path_120);
      }
    </style>
    <filter id="Path_120" x="14161.42" y="4249" width="126.867" height="33.195" filterUnits="userSpaceOnUse">
      <feOffset dy="3" input="SourceAlpha"/>
      <feGaussianBlur stdDeviation="3" result="blur"/>
      <feFlood flood-opacity="0.161"/>
      <feComposite operator="in" in2="blur"/>
      <feComposite in="SourceGraphic"/>
    </filter>
  </defs>
  <g id="Watch_Video" data-name="Watch Video" transform="translate(13020 3337)">
    <g id="Rectangle_143" data-name="Rectangle 143" class="cls-1" transform="translate(1107 907)">
      <rect class="cls-3" width="166" height="38" rx="10"/>
      <rect class="cls-4" x="0.5" y="0.5" width="165" height="37" rx="9.5"/>
    </g>
    <g class="cls-5" transform="matrix(1, 0, 0, 1, -13020, -3337)">
      <path id="Path_120-2" data-name="Path 120" class="cls-2" d="M-50.752-3.838l.439,2.207.537-2.109,3.086-10.479h1.084L-42.559-3.74l.527,2.129.469-2.227,2.568-10.381h1.23L-41.406,0h-1.152l-3.223-11.123-.361-1.406-.352,1.406L-49.795,0h-1.152L-54.58-14.219h1.23ZM-29.375,0a3.357,3.357,0,0,1-.151-.669q-.054-.4-.073-.806a4.152,4.152,0,0,1-.625.645,4.135,4.135,0,0,1-.811.527,4.9,4.9,0,0,1-.986.361A4.7,4.7,0,0,1-33.184.2a4.149,4.149,0,0,1-1.4-.225,3.134,3.134,0,0,1-1.074-.63,2.846,2.846,0,0,1-.688-.952A2.889,2.889,0,0,1-36.592-2.8a2.9,2.9,0,0,1,.332-1.392A3.01,3.01,0,0,1-35.3-5.249a4.674,4.674,0,0,1,1.519-.664,8.078,8.078,0,0,1,2.007-.229h2.168v-1.2a2.315,2.315,0,0,0-.7-1.782,2.886,2.886,0,0,0-2.036-.649,3.692,3.692,0,0,0-1.133.166,2.86,2.86,0,0,0-.894.459,2.18,2.18,0,0,0-.586.679,1.7,1.7,0,0,0-.21.825l-1.172-.01a2.444,2.444,0,0,1,.293-1.152A3.206,3.206,0,0,1-35.22-9.8a4.225,4.225,0,0,1,1.279-.7,4.946,4.946,0,0,1,1.655-.264,5.311,5.311,0,0,1,1.548.215,3.372,3.372,0,0,1,1.216.645,2.925,2.925,0,0,1,.791,1.074,3.712,3.712,0,0,1,.283,1.5v5.117q0,.273.02.566t.063.566q.044.273.1.522a2.749,2.749,0,0,0,.137.435V0Zm-3.672-.84A4.113,4.113,0,0,0-31.87-1a3.8,3.8,0,0,0,.981-.444,3.473,3.473,0,0,0,.762-.659,3.321,3.321,0,0,0,.518-.815V-5.244h-2a7.269,7.269,0,0,0-1.606.161,3.905,3.905,0,0,0-1.2.464,2.189,2.189,0,0,0-.747.737,1.881,1.881,0,0,0-.259.981,1.972,1.972,0,0,0,.166.806,1.918,1.918,0,0,0,.474.654A2.257,2.257,0,0,0-34.033-1,2.85,2.85,0,0,0-33.047-.84Zm9.531-12.432v2.705h2.188v.957h-2.187v7.041a2.9,2.9,0,0,0,.112.894,1.325,1.325,0,0,0,.3.527.942.942,0,0,0,.439.254,2.108,2.108,0,0,0,.522.063,3.661,3.661,0,0,0,.508-.034l.439-.063.049.957A2.667,2.667,0,0,1-21.7.151,5.47,5.47,0,0,1-22.393.2a3.1,3.1,0,0,1-.923-.132,1.654,1.654,0,0,1-.728-.454,2.217,2.217,0,0,1-.474-.854,4.384,4.384,0,0,1-.171-1.323V-9.609h-1.943v-.957h1.943v-2.705ZM-15-.791a3.545,3.545,0,0,0,1.069-.161,2.866,2.866,0,0,0,.913-.474,2.564,2.564,0,0,0,.659-.771,2.461,2.461,0,0,0,.3-1.064h1.123a3.284,3.284,0,0,1-.376,1.387A3.612,3.612,0,0,1-12.2-.781a4.172,4.172,0,0,1-1.274.718A4.484,4.484,0,0,1-15,.2,4.445,4.445,0,0,1-16.953-.21a4.024,4.024,0,0,1-1.411-1.118A4.888,4.888,0,0,1-19.224-3a7.2,7.2,0,0,1-.288-2.075v-.41a7.2,7.2,0,0,1,.288-2.075,4.883,4.883,0,0,1,.854-1.67,4.04,4.04,0,0,1,1.411-1.118,4.408,4.408,0,0,1,1.948-.41,4.6,4.6,0,0,1,1.577.264,3.817,3.817,0,0,1,1.27.752A3.614,3.614,0,0,1-11.3-8.56,4.129,4.129,0,0,1-10.937-7h-1.123a3.124,3.124,0,0,0-.278-1.152,2.751,2.751,0,0,0-.635-.869,2.733,2.733,0,0,0-.918-.552,3.24,3.24,0,0,0-1.118-.19,3.115,3.115,0,0,0-1.538.352,2.965,2.965,0,0,0-1.03.947A4.1,4.1,0,0,0-18.159-7.1a7.045,7.045,0,0,0-.181,1.611v.41a7.153,7.153,0,0,0,.181,1.626,4.106,4.106,0,0,0,.576,1.367,2.914,2.914,0,0,0,1.035.942A3.171,3.171,0,0,0-15-.791Zm7.559-7.988a4.452,4.452,0,0,1,.635-.815,3.963,3.963,0,0,1,.8-.625,3.876,3.876,0,0,1,.938-.4A3.929,3.929,0,0,1-4-10.762a4.342,4.342,0,0,1,1.416.215,2.55,2.55,0,0,1,1.06.684A3.1,3.1,0,0,1-.864-8.657,6.047,6.047,0,0,1-.635-6.875V0H-1.8V-6.885a4.531,4.531,0,0,0-.176-1.367,2.209,2.209,0,0,0-.5-.879A1.812,1.812,0,0,0-3.257-9.6a3.52,3.52,0,0,0-1.03-.142,2.939,2.939,0,0,0-1.133.21,3.1,3.1,0,0,0-.9.562,3.741,3.741,0,0,0-.674.806,4.626,4.626,0,0,0-.449.933V0H-8.6V-15h1.162ZM11.8-1.758l.078.3.088-.3,4.473-12.461h1.318L12.461,0H11.309L6.016-14.219H7.324ZM20.879,0H19.707V-10.566h1.172ZM19.5-13.623a.791.791,0,0,1,.215-.562.764.764,0,0,1,.586-.229.78.78,0,0,1,.591.229.781.781,0,0,1,.22.562.765.765,0,0,1-.22.557.789.789,0,0,1-.591.225.772.772,0,0,1-.586-.225A.774.774,0,0,1,19.5-13.623Zm4.082,8.242A8.082,8.082,0,0,1,23.867-7.6,5.154,5.154,0,0,1,24.678-9.3a3.63,3.63,0,0,1,1.284-1.084,3.738,3.738,0,0,1,1.7-.381,3.9,3.9,0,0,1,1.929.449,3.823,3.823,0,0,1,1.333,1.24V-15H32.09V0H31l-.049-1.406A3.711,3.711,0,0,1,29.6-.229,4.19,4.19,0,0,1,27.646.2a3.573,3.573,0,0,1-1.689-.4,3.771,3.771,0,0,1-1.279-1.1A5.218,5.218,0,0,1,23.867-3a7.874,7.874,0,0,1-.283-2.178Zm1.182.205a7.584,7.584,0,0,0,.186,1.724,4.309,4.309,0,0,0,.566,1.382,2.786,2.786,0,0,0,.962.918,2.74,2.74,0,0,0,1.382.332A3.833,3.833,0,0,0,28.94-.962a3.062,3.062,0,0,0,.859-.4,2.9,2.9,0,0,0,.654-.605,3.979,3.979,0,0,0,.474-.762V-7.686a4.736,4.736,0,0,0-.43-.771,2.92,2.92,0,0,0-.625-.659,3.011,3.011,0,0,0-.859-.459,3.426,3.426,0,0,0-1.133-.171,2.755,2.755,0,0,0-1.4.337,2.816,2.816,0,0,0-.967.923A4.307,4.307,0,0,0,24.951-7.1a7.6,7.6,0,0,0-.186,1.719ZM39.258.2a4.642,4.642,0,0,1-1.9-.386,4.46,4.46,0,0,1-1.5-1.074A4.938,4.938,0,0,1,34.873-2.9a5.936,5.936,0,0,1-.352-2.08V-5.4a6.344,6.344,0,0,1,.366-2.212A5.206,5.206,0,0,1,35.879-9.3a4.445,4.445,0,0,1,1.44-1.079,4.024,4.024,0,0,1,1.724-.381,4.212,4.212,0,0,1,1.787.361,3.684,3.684,0,0,1,1.313,1.006,4.417,4.417,0,0,1,.806,1.533,6.582,6.582,0,0,1,.273,1.943v.713H35.684v.225a5,5,0,0,0,.264,1.636,4.116,4.116,0,0,0,.742,1.333,3.512,3.512,0,0,0,1.143.894,3.291,3.291,0,0,0,1.475.327,3.808,3.808,0,0,0,1.655-.342,3.671,3.671,0,0,0,1.3-1.094L43-1.67a5.058,5.058,0,0,1-.61.723,3.668,3.668,0,0,1-.806.6,4.337,4.337,0,0,1-1.035.4A5.237,5.237,0,0,1,39.258.2Zm-.215-9.961a2.973,2.973,0,0,0-1.23.254,3.063,3.063,0,0,0-1,.723A3.833,3.833,0,0,0,36.1-7.661a5.426,5.426,0,0,0-.376,1.46h6.338v-.127a4.715,4.715,0,0,0-.215-1.284,3.425,3.425,0,0,0-.571-1.1,2.816,2.816,0,0,0-.933-.767A2.788,2.788,0,0,0,39.043-9.766Zm5.811,4.326a6.488,6.488,0,0,1,.337-2.129,5.044,5.044,0,0,1,.952-1.685,4.357,4.357,0,0,1,1.484-1.108,4.567,4.567,0,0,1,1.934-.4,4.648,4.648,0,0,1,1.958.4,4.344,4.344,0,0,1,1.489,1.108,4.979,4.979,0,0,1,.947,1.685,6.575,6.575,0,0,1,.332,2.129v.322a6.575,6.575,0,0,1-.332,2.129A4.979,4.979,0,0,1,53.008-1.3,4.3,4.3,0,0,1,51.523-.2,4.639,4.639,0,0,1,49.58.2a4.639,4.639,0,0,1-1.943-.4,4.352,4.352,0,0,1-1.489-1.1,5,5,0,0,1-.957-1.685,6.488,6.488,0,0,1-.337-2.129Zm1.172.322a5.764,5.764,0,0,0,.234,1.655,4.263,4.263,0,0,0,.684,1.377,3.35,3.35,0,0,0,1.113.942,3.207,3.207,0,0,0,1.523.352A3.178,3.178,0,0,0,51.1-1.143a3.365,3.365,0,0,0,1.108-.942,4.263,4.263,0,0,0,.684-1.377,5.764,5.764,0,0,0,.234-1.655v-.322a5.7,5.7,0,0,0-.234-1.636,4.322,4.322,0,0,0-.684-1.382,3.363,3.363,0,0,0-1.118-.952,3.2,3.2,0,0,0-1.528-.356,3.122,3.122,0,0,0-1.509.356,3.394,3.394,0,0,0-1.108.952,4.322,4.322,0,0,0-.684,1.382,5.7,5.7,0,0,0-.234,1.636Z" transform="translate(14225 4270)"/>
    </g>
    <path id="play-button" class="cls-2" d="M20.784,10.088l-14.5-10A.5.5,0,0,0,5.5.5v20a.5.5,0,0,0,.784.411l14.5-10a.5.5,0,0,0,0-.823ZM6.5,19.547V1.452L19.619,10.5Z" transform="translate(1116.25 916)"/>
  </g>
</svg>
