<svg xmlns="http://www.w3.org/2000/svg" xmlns:xlink="http://www.w3.org/1999/xlink" viewBox="14127 4244 166 43"><defs><style>.a,.e{fill:none;}.a{stroke:#d5b250;}.b,.c{fill:#f1d482;}.b{font-size:20px;font-family:Roboto-Light, Roboto;font-weight:300;}.d{stroke:none;}.f{filter:url(#a);}</style><filter id="a" x="14160" y="4245" width="130" height="42" filterUnits="userSpaceOnUse"><feOffset dy="3" input="SourceAlpha"/><feGaussianBlur stdDeviation="3" result="b"/><feFlood flood-opacity="0.161"/><feComposite operator="in" in2="b"/><feComposite in="SourceGraphic"/></filter></defs><g transform="translate(13250 3337)"><g transform="translate(-230)"><g class="a" transform="translate(1107 907)"><rect class="d" width="166" height="38" rx="10"/><rect class="e" x="0.5" y="0.5" width="165" height="37" rx="9.5"/></g><g class="f" transform="matrix(1, 0, 0, 1, -13020, -3337)"><text class="b" transform="translate(14225 4270)"><tspan x="-55.112" y="0">Watch Video</tspan></text></g><path class="c" d="M20.784,10.088l-14.5-10A.5.5,0,0,0,5.5.5v20a.5.5,0,0,0,.784.411l14.5-10a.5.5,0,0,0,0-.823ZM6.5,19.547V1.452L19.619,10.5Z" transform="translate(1116.25 916)"/></g></g></svg>