<svg xmlns="http://www.w3.org/2000/svg" viewBox="6403.998 5921.001 168.002 167.997"><defs><style>.a{fill:#b8b8b8;}</style></defs><path class="a" d="M-18025-3169a84.094,84.094,0,0,1-84-84,84.1,84.1,0,0,1,84-84,84.1,84.1,0,0,1,84,84A84.094,84.094,0,0,1-18025-3169Zm0-43.207a4.644,4.644,0,0,0-4.641,4.636,4.646,4.646,0,0,0,4.641,4.64,4.642,4.642,0,0,0,4.635-4.64A4.64,4.64,0,0,0-18025-3212.209Zm17.232-3.831a4.642,4.642,0,0,0-4.635,4.64,4.64,4.64,0,0,0,4.635,4.635,4.644,4.644,0,0,0,4.641-4.635A4.646,4.646,0,0,0-18007.768-3216.041Zm-37.344,0a4.642,4.642,0,0,0-4.635,4.64,4.64,4.64,0,0,0,4.635,4.635,4.644,4.644,0,0,0,4.641-4.635A4.646,4.646,0,0,0-18045.111-3216.041Zm52.67-9.576a4.646,4.646,0,0,0-4.641,4.64,4.644,4.644,0,0,0,4.641,4.636,4.64,4.64,0,0,0,4.635-4.636A4.642,4.642,0,0,0-17992.441-3225.616Zm-66.072,0a4.646,4.646,0,0,0-4.641,4.64,4.644,4.644,0,0,0,4.641,4.636,4.642,4.642,0,0,0,4.637-4.636A4.644,4.644,0,0,0-18058.514-3225.616Zm33.514-8.9a7.046,7.046,0,0,0-7.041,7.035,7.048,7.048,0,0,0,7.041,7.04,7.046,7.046,0,0,0,7.039-7.04A7.044,7.044,0,0,0-18025-3234.52Zm18.479-7.04a7.046,7.046,0,0,0-7.039,7.04,7.044,7.044,0,0,0,7.039,7.035,7.043,7.043,0,0,0,7.035-7.035A7.046,7.046,0,0,0-18006.521-3241.559Zm-36.957,0a7.048,7.048,0,0,0-7.041,7.04,7.046,7.046,0,0,0,7.041,7.035,7.044,7.044,0,0,0,7.039-7.035A7.046,7.046,0,0,0-18043.479-3241.559Zm60.613.623a4.644,4.644,0,0,0-4.641,4.635,4.646,4.646,0,0,0,4.641,4.64,4.642,4.642,0,0,0,4.635-4.64A4.64,4.64,0,0,0-17982.865-3240.937Zm-84.27,0a4.641,4.641,0,0,0-4.637,4.635,4.644,4.644,0,0,0,4.637,4.64,4.646,4.646,0,0,0,4.641-4.64A4.644,4.644,0,0,0-18067.135-3240.937ZM-18025-3264a11.013,11.013,0,0,0-11,11,11.011,11.011,0,0,0,11,11,11.011,11.011,0,0,0,11-11A11.013,11.013,0,0,0-18025-3264Zm25.514,3.963a7.046,7.046,0,0,0-7.035,7.04,7.046,7.046,0,0,0,7.035,7.04,7.048,7.048,0,0,0,7.041-7.04A7.048,7.048,0,0,0-17999.486-3260.038Zm-51.033,0a7.046,7.046,0,0,0-7.035,7.04,7.046,7.046,0,0,0,7.035,7.04,7.048,7.048,0,0,0,7.041-7.04A7.048,7.048,0,0,0-18050.52-3260.038Zm71.48,2.822a4.642,4.642,0,0,0-4.637,4.636,4.644,4.644,0,0,0,4.637,4.64,4.646,4.646,0,0,0,4.641-4.64A4.644,4.644,0,0,0-17979.039-3257.216Zm-91.922,0a4.644,4.644,0,0,0-4.641,4.636,4.646,4.646,0,0,0,4.641,4.64,4.642,4.642,0,0,0,4.635-4.64A4.64,4.64,0,0,0-18070.961-3257.216Zm64.439-21.3a7.047,7.047,0,0,0-7.039,7.04,7.046,7.046,0,0,0,7.039,7.04,7.046,7.046,0,0,0,7.035-7.04A7.046,7.046,0,0,0-18006.521-3278.517Zm-36.957,0a7.048,7.048,0,0,0-7.041,7.04,7.048,7.048,0,0,0,7.041,7.04,7.046,7.046,0,0,0,7.039-7.04A7.047,7.047,0,0,0-18043.479-3278.517Zm60.613,4.068a4.644,4.644,0,0,0-4.641,4.636,4.644,4.644,0,0,0,4.641,4.635,4.64,4.64,0,0,0,4.635-4.635A4.64,4.64,0,0,0-17982.865-3274.45Zm-84.27,0a4.642,4.642,0,0,0-4.637,4.636,4.641,4.641,0,0,0,4.637,4.635,4.644,4.644,0,0,0,4.641-4.635A4.644,4.644,0,0,0-18067.135-3274.45Zm42.135-11.107a7.048,7.048,0,0,0-7.041,7.04,7.048,7.048,0,0,0,7.041,7.04,7.047,7.047,0,0,0,7.039-7.04A7.046,7.046,0,0,0-18025-3285.557Zm32.559-3.259a4.644,4.644,0,0,0-4.641,4.636,4.646,4.646,0,0,0,4.641,4.64,4.642,4.642,0,0,0,4.635-4.64A4.64,4.64,0,0,0-17992.441-3288.816Zm-66.072,0a4.644,4.644,0,0,0-4.641,4.636,4.646,4.646,0,0,0,4.641,4.64,4.644,4.644,0,0,0,4.637-4.64A4.642,4.642,0,0,0-18058.514-3288.816Zm50.746-9.576a4.642,4.642,0,0,0-4.635,4.64,4.64,4.64,0,0,0,4.635,4.635,4.644,4.644,0,0,0,4.641-4.635A4.646,4.646,0,0,0-18007.768-3298.391Zm-37.344,0a4.642,4.642,0,0,0-4.635,4.64,4.64,4.64,0,0,0,4.635,4.635,4.644,4.644,0,0,0,4.641-4.635A4.646,4.646,0,0,0-18045.111-3298.391Zm20.111-4.786a4.644,4.644,0,0,0-4.641,4.635,4.644,4.644,0,0,0,4.641,4.636,4.64,4.64,0,0,0,4.635-4.636A4.64,4.64,0,0,0-18025-3303.177Z" transform="translate(24513 9258)"/></svg>