<svg xmlns="http://www.w3.org/2000/svg" viewBox="6723 5545 168 168.001"><defs><style>.a{fill:#b8b8b8;}</style></defs><path class="a" d="M-1657,4942a84.1,84.1,0,0,1-84-84,84.1,84.1,0,0,1,84-84,84.1,84.1,0,0,1,84,84A84.1,84.1,0,0,1-1657,4942Zm-33.758-61.438v21.807h7.938v-5.959h10.691l-.75-2.19a10.86,10.86,0,0,0,1.071.2c.667.1,1.244.188,1.4.488a2.665,2.665,0,0,0,2.634,1.637c.37,0,.755-.038,1.15-.076.439-.042.855-.082,1.277-.082.161,0,.323.005.485.019-.572-.986-1.135-1.933-1.683-2.856-1.167-1.964-2.26-3.8-3.256-5.7a2.419,2.419,0,0,0-2.47-1.546l-.212,0c-1.251.044-2.62.065-4.309.065-.949,0-1.908-.006-2.884-.012-1.076-.007-2.121-.014-3.191-.014v-5.787Zm55.64,15.89,2.562.006h.367c1.017,0,2.05.008,3.1.008v5.011h7.959v-5.034h8.667l0-10.125h-8.761v-6.666h-7.857c0,.49-.006.971-.012,1.443-.014,1.063-.026,2.068.029,3.083a2.373,2.373,0,0,1-.4,1.834,1.862,1.862,0,0,1-1.412.448c-.1,0-.2,0-.3-.009-1-.056-2.073-.082-3.392-.082-.845,0-1.694.01-2.552.021-.872.011-1.752.021-2.642.021l.482,2.229a9.955,9.955,0,0,0-1.036-.23c-.67-.125-1.246-.232-1.423-.551a2.583,2.583,0,0,0-2.426-1.592,8.893,8.893,0,0,0-1.49.176,12.484,12.484,0,0,1-1.427.19c.524.89,1.039,1.746,1.541,2.581,1.2,2,2.33,3.875,3.349,5.812a2.451,2.451,0,0,0,2.552,1.465l.19,0C-1638.01,4896.46-1636.575,4896.452-1635.118,4896.452Zm-26.061-10.03,1.172,1.991c1.093,1.856,2.112,3.585,3.117,5.323,1.23,2.115,1.724,2.846,3.092,2.846a15.139,15.139,0,0,0,2.7-.408l-5.548-9.915,2.783-.434v-3.876l2.476-.2.908,3.943,3.832-.786-.641-4.037,2.426-.781,1.751,3.6,3.545-1.6-1.507-3.711,2.265-1.259,2.431,3.189,3.159-2.312-2.316-3.344,2.006-1.689,3.014,2.569,2.641-2.873-2.939-2.8,1.54-2.051,3.553,1.857,1.944-3.361-3.457-2.083,1.113-2.4,3.8,1.154,1.136-3.726-3.675-1.33.458-2.575,4.1.371.241-3.858-3.881-.651c.022-.292.02-.619.017-.931-.005-.631-.01-1.227.206-1.328a11.368,11.368,0,0,1,2.595-.711c.389-.076.749-.146,1.114-.229l-.356-3.719-4.029.241-.481-2.459,3.719-1.427-1.174-3.662-3.857,1.119-1.021-2.387,3.4-2.094-1.929-3.328-3.588,1.872-1.48-2.125,2.895-2.73-2.622-2.915-3.075,2.622-1.879-1.793,2.244-3.286-3.137-2.264-2.512,3.167-2.172-1.295,1.472-3.742-3.524-1.532-1.775,3.6-2.461-.864.765-3.9-3.832-.709-.965,3.86-2.479-.338-.227-3.927h-3.9v3.893l-2.653.33-.937-3.878-3.819.767.706,3.9-2.411.854-1.831-3.629-3.5,1.6,1.531,3.731-2.275,1.272-2.445-3.2-3.135,2.344,2.252,3.287-1.929,1.71-3.093-2.577-2.587,2.894,2.959,2.812-1.618,2.062-3.477-1.91-1.958,3.376,3.448,2.1-1.116,2.391-3.83-1.16-1.148,3.717,3.736,1.348-.557,2.505-4.006-.241-.287,3.833,3.754.522v2.6l-3.79.564.325,3.893,4.028-.409.482,2.652-3.712,1.295,1.225,3.7,3.808-1.137,1.064,2.412-3.444,2.076,1.978,3.375,3.517-1.9,1.56,2.093-2.946,2.776,2.667,2.894,2.988-2.628,1.943,1.775-2.271,3.334,3.154,2.228,2.511-3.162,2.2,1.322-1.544,3.7,3.581,1.536,1.733-3.579,2.45.821-.708,3.97,3.859.724.876-3.8,2.681.159v4.478Zm10.53-.084c-.722,0-1.444.067-2.281.145l-.114.01-.968.085c.478.844.933,1.664,1.378,2.465.981,1.768,1.9,3.424,2.9,5.037,1.173,1.9,1.743,2.487,3.028,2.487a13.029,13.029,0,0,0,2.653-.427l-1.33-2.3c-1.343-2.328-2.708-4.694-4.085-6.989A1.554,1.554,0,0,0-1650.649,4886.338Zm-15.576,0c-.615,0-1.279.058-1.962.123l1.117,1.917c.968,1.662,1.894,3.252,2.833,4.838.332.562.591,1.033.808,1.426.8,1.46,1.021,1.853,2.169,1.853.414,0,.943-.05,1.676-.119.512-.048,1.01-.095,1.589-.141-.442-.76-.9-1.5-1.364-2.24a35.406,35.406,0,0,1-2.769-5.015A3.883,3.883,0,0,0-1666.224,4886.333Zm10.205-25.978a10.379,10.379,0,0,1-7.3-2.981,10.5,10.5,0,0,1-3.132-7.381,10.628,10.628,0,0,1,10.322-10.486l.192,0a10.553,10.553,0,0,1,10.356,10.44,10.39,10.39,0,0,1-10.294,10.41Zm.009-19.247h0a8.878,8.878,0,0,0-6.244,2.685,8.831,8.831,0,0,0-2.6,6.239,8.856,8.856,0,0,0,8.865,8.743,8.9,8.9,0,0,0,8.825-8.775,8.962,8.962,0,0,0-8.751-8.892Z" transform="translate(8464 771)"/></svg>