<svg xmlns="http://www.w3.org/2000/svg" viewBox="5764 5921 168 168"><defs><style>.a{fill:#b8b8b8;}</style></defs><path class="a" d="M-1018,4566a84.1,84.1,0,0,1-84-84,84.1,84.1,0,0,1,84-84,84.1,84.1,0,0,1,84,84A84.1,84.1,0,0,1-1018,4566Zm-14.341-51.587a2.173,2.173,0,0,0-2.17,2.171,2.173,2.173,0,0,0,2.17,2.171h28.071a2.173,2.173,0,0,0,2.17-2.171,2.173,2.173,0,0,0-2.17-2.171h-5.056a20.126,20.126,0,0,1-1.2-7.236h29.377a6.541,6.541,0,0,0,6.533-6.534v-49.108a6.545,6.545,0,0,0-6.535-6.535h-74.321a6.541,6.541,0,0,0-6.533,6.535v49.108a6.541,6.541,0,0,0,6.533,6.534h29.374a20.164,20.164,0,0,1-1.2,7.236Zm51.195-10.626h-74.321a3.147,3.147,0,0,1-3.143-3.145v-4.257H-978v4.257A3.152,3.152,0,0,1-981.146,4503.788ZM-978,4493h-80.607v-41.461a3.148,3.148,0,0,1,3.143-3.146h74.321a3.148,3.148,0,0,1,3.143,3.146V4493Zm-23.263-35.164a1.562,1.562,0,0,0-1.207.568c-4.068,4.917-2.04,10.105-.251,14.683,1.688,4.319,3.146,8.05.252,11.548a1.568,1.568,0,0,0,.207,2.2,1.571,1.571,0,0,0,1,.36,1.561,1.561,0,0,0,1.206-.567c4.069-4.919,2.042-10.105.253-14.682-1.69-4.32-3.149-8.051-.253-11.552a1.554,1.554,0,0,0,.353-1.145,1.553,1.553,0,0,0-.56-1.058A1.569,1.569,0,0,0-1001.266,4457.833Zm-8.176,0a1.559,1.559,0,0,0-1.207.568c-4.069,4.918-2.041,10.106-.252,14.683,1.688,4.319,3.145,8.05.252,11.548a1.568,1.568,0,0,0,.209,2.2,1.563,1.563,0,0,0,1,.36,1.562,1.562,0,0,0,1.207-.567c4.07-4.922,2.042-10.108.252-14.683-1.688-4.32-3.146-8.051-.252-11.551a1.552,1.552,0,0,0,.353-1.144,1.553,1.553,0,0,0-.561-1.059A1.567,1.567,0,0,0-1009.441,4457.833Zm-27.724,26.774a.919.919,0,0,0-.918.917.918.918,0,0,0,.918.917h18.333a.918.918,0,0,0,.917-.917.918.918,0,0,0-.917-.917h-.917v-4.89a8.227,8.227,0,0,0-4.487-7.333,8.227,8.227,0,0,0,4.487-7.334v-4.888h.917a.918.918,0,0,0,.917-.918.918.918,0,0,0-.917-.917h-18.333a.919.919,0,0,0-.918.917.919.919,0,0,0,.918.918h.916v4.888a8.226,8.226,0,0,0,4.489,7.334,8.224,8.224,0,0,0-4.489,7.333v4.89Zm15.583-1.039h0l-2.525-2.111c-2.476-2.074-2.476-2.074-2.967-2.247l-.007-1.019a.918.918,0,0,0-.917-.917.918.918,0,0,0-.917.917v1.017c-.5.176-.5.176-3.039,2.3l-2.461,2.056v-3.849a6.446,6.446,0,0,1,5.5-6.344v1.149a.918.918,0,0,0,.917.918.918.918,0,0,0,.917-.918v-1.149a6.446,6.446,0,0,1,5.5,6.344v3.851Zm-.029-17.963h-12.778c-.032-.382-.032-.382-.03-2.338l0-3.1h12.834l0,3.139c0,1.924,0,1.924-.03,2.3h0Z" transform="translate(6866 1523)"/></svg>