<svg xmlns="http://www.w3.org/2000/svg" viewBox="1107 -13956.3 112.134 162.3">
  <defs>
    <style>
      .cls-1, .cls-4 {
        fill: #fff;
      }

      .cls-1, .cls-3, .cls-4, .cls-5, .cls-6, .cls-7 {
        stroke: #000;
      }

      .cls-2 {
        fill-rule: evenodd;
      }

      .cls-3, .cls-5, .cls-6, .cls-9 {
        fill: none;
      }

      .cls-3, .cls-4 {
        stroke-width: 0.5px;
      }

      .cls-5 {
        stroke-width: 0.25px;
      }

      .cls-6 {
        stroke-width: 0.2px;
      }

      .cls-7 {
        fill: rgba(255,255,255,0.49);
      }

      .cls-8 {
        stroke: none;
      }
    </style>
  </defs>
  <g id="Pentagram_Graphic" transform="translate(3 4.7)">
    <g id="Rectangle_23187" data-name="Rectangle 23187" class="cls-1" transform="translate(1104 -13961)">
      <rect class="cls-8" width="112.134" height="162.3" rx="2"/>
      <rect class="cls-9" x="0.5" y="0.5" width="111.134" height="161.3" rx="1.5"/>
    </g>
    <g id="Logo" transform="translate(1156.133 -13842.012)">
      <path id="Path_5811" data-name="Path 5811" class="cls-2" d="M0,44.858l.4-.4,2.2,2.2v-.8L.8,44.063l.408-.407,1.4,1.392v-.81l-.993-.986.4-.4,1.16,1.157v4.014Z" transform="translate(0 -40.812)"/>
      <path id="Path_5812" data-name="Path 5812" class="cls-2" d="M105.484,44.918l-.4-.4-2.2,2.2v-.8l1.8-1.791-.408-.407-1.395,1.393V44.3l.993-.988-.4-.4-1.161,1.158v4.014Z" transform="translate(-97.421 -40.869)"/>
      <path id="Path_5813" data-name="Path 5813" class="cls-2" d="M78.677,8.123l-.287-.286V.346L78.677.06l.287.286V7.841Z" transform="translate(-74.644 -0.06)"/>
      <path id="Path_5814" data-name="Path 5814" class="cls-2" d="M51.385,18.67v1.5l-.755-.751Z" transform="translate(-48.211 -17.784)"/>
      <path id="Path_5815" data-name="Path 5815" class="cls-2" d="M102.39,18.59l.743.74c-.188.184-.554.578-.743.766Z" transform="translate(-97.497 -17.707)"/>
    </g>
    <g id="Group_6327" data-name="Group 6327" transform="translate(1128.197 -13864.636)">
      <g id="Group_6324" data-name="Group 6324" transform="translate(0)">
        <path id="Path_8584" data-name="Path 8584" class="cls-3" d="M1131.6-13857.834V-13869h1.967l1.967,1.143v10.023Z" transform="translate(-1131.6 13869.082)"/>
        <line id="Line_5363" data-name="Line 5363" class="cls-3" y2="11.41" transform="translate(1.869)"/>
      </g>
      <g id="Group_6325" data-name="Group 6325" transform="translate(59.018)">
        <path id="Path_8584-2" data-name="Path 8584" class="cls-3" d="M1135.535-13857.834V-13869h-1.967l-1.967,1.143v10.023Z" transform="translate(-1131.6 13869.082)"/>
        <line id="Line_5363-2" data-name="Line 5363" class="cls-3" y2="11.41" transform="translate(2.066)"/>
      </g>
      <path id="Path_8585" data-name="Path 8585" class="cls-4" d="M2.262,4.3H57.149l2.115.886H0Z" transform="translate(1.869 3.962)"/>
      <g id="Group_6326" data-name="Group 6326" transform="translate(15.148 5.705)">
        <g id="Ellipse_800" data-name="Ellipse 800" class="cls-1" transform="translate(0 0.649)">
          <ellipse class="cls-8" cx="16.722" cy="1.298" rx="16.722" ry="1.298"/>
          <ellipse class="cls-9" cx="16.722" cy="1.298" rx="16.222" ry="0.798"/>
        </g>
        <g id="Ellipse_801" data-name="Ellipse 801" class="cls-4" transform="translate(0 0)">
          <ellipse class="cls-8" cx="16.722" cy="1.298" rx="16.722" ry="1.298"/>
          <ellipse class="cls-9" cx="16.722" cy="1.298" rx="16.472" ry="1.048"/>
        </g>
      </g>
      <g id="Rectangle_23189" data-name="Rectangle 23189" class="cls-4" transform="translate(1.869 8.951)">
        <rect class="cls-8" width="59.51" height="1.967"/>
        <rect class="cls-9" x="0.25" y="0.25" width="59.01" height="1.467"/>
      </g>
    </g>
    <line id="Line_5367" data-name="Line 5367" class="cls-3" x1="93.445" transform="translate(1113.344 -13889.687)"/>
    <line id="Line_5368" data-name="Line 5368" class="cls-3" x1="93.445" transform="translate(1113.344 -13900.506)"/>
    <line id="Line_5369" data-name="Line 5369" class="cls-5" x1="93.445" transform="translate(1113.344 -13919.194)"/>
    <line id="Line_5370" data-name="Line 5370" class="cls-6" x1="93.445" transform="translate(1113.344 -13916.245)"/>
    <line id="Line_5374" data-name="Line 5374" class="cls-6" x1="93.445" transform="translate(1113.344 -13917.229)"/>
    <line id="Line_5373" data-name="Line 5373" class="cls-6" x1="93.445" transform="translate(1113.344 -13915.262)"/>
    <line id="Line_5371" data-name="Line 5371" class="cls-6" x1="93.445" transform="translate(1113.344 -13905.425)"/>
    <line id="Line_5372" data-name="Line 5372" class="cls-6" x1="93.445" transform="translate(1113.344 -13906.408)"/>
    <line id="Line_5375" data-name="Line 5375" class="cls-6" x1="93.445" transform="translate(1113.344 -13907.393)"/>
    <g id="Group_6330" data-name="Group 6330" transform="translate(1144.329 -13949.196)">
      <g id="Rectangle_23193" data-name="Rectangle 23193" class="cls-4">
        <rect class="cls-8" width="31.476" height="53.116"/>
        <rect class="cls-9" x="0.25" y="0.25" width="30.976" height="52.616"/>
      </g>
      <g id="Group_6329" data-name="Group 6329" transform="translate(9.836 32.46)">
        <path id="ss" d="M207.275,121.313c-.18-.143-.359-.27-.517-.421a.246.246,0,0,1-.042-.227.629.629,0,0,0,0-.536.834.834,0,0,1-.025-.3,5.992,5.992,0,0,1,.014-1.005,2.486,2.486,0,0,0,0-.75,8.472,8.472,0,0,1-.011-1.224c0-.07.042-.14.048-.211a1.533,1.533,0,0,0,0-.3c-.008-.093-.053-.185-.053-.278q0-1.478,0-2.956c0-.028.008-.056.014-.1h1.154c0,.076.011.152.011.23,0,.9.022,1.811-.014,2.715a6.026,6.026,0,0,0,0,1.056,3.438,3.438,0,0,1,0,.96,3.144,3.144,0,0,0,0,.946,6.6,6.6,0,0,1,.011,1.028.338.338,0,0,1-.014.152.717.717,0,0,0-.008.62.234.234,0,0,1-.067.2C207.62,121.049,207.449,121.176,207.275,121.313Zm-.43-8.162c0,1,0,1.971,0,2.942a1.283,1.283,0,0,0,.076.292c.244-.275.466-.505.663-.758a.6.6,0,0,0,.115-.337c.011-.643.008-1.286.008-1.929,0-.07-.006-.14-.011-.211Zm.051,5.141c.02.006.039.014.062.02.227-.261.463-.517.679-.789a1.075,1.075,0,0,0-.039-.9c-.177.194-.343.4-.531.578C206.73,117.531,206.834,117.913,206.9,118.292Zm.761.3-.062-.011c-.216.247-.438.489-.646.741a.981.981,0,0,0,.014.941c.191-.211.379-.424.57-.635C207.828,119.3,207.7,118.944,207.657,118.59Zm-.048,1.9c-.126.241-.4.34-.4.64C207.665,120.892,207.738,120.786,207.609,120.494Z" transform="translate(-201.294 -82.109)"/>
        <g id="Rectangle_23192" data-name="Rectangle 23192" class="cls-4" transform="translate(2.951 28.525)">
          <rect class="cls-8" width="5.902" height="3.935"/>
          <rect class="cls-9" x="0.25" y="0.25" width="5.402" height="3.435"/>
        </g>
        <g id="Rectangle_23191" data-name="Rectangle 23191" class="cls-4">
          <rect class="cls-8" width="11.804" height="29.509"/>
          <rect class="cls-9" x="0.25" y="0.25" width="11.304" height="29.009"/>
        </g>
      </g>
    </g>
    <g id="Rectangle_23188" data-name="Rectangle 23188" class="cls-7" transform="translate(1112.853 -13952.146)">
      <rect class="cls-8" width="94.429" height="99.413" rx="2"/>
      <rect class="cls-9" x="0.5" y="0.5" width="93.429" height="98.413" rx="1.5"/>
    </g>
  </g>
</svg>
