<svg xmlns="http://www.w3.org/2000/svg" viewBox="3622 -2150 167.999 168"><defs><style>.a{fill:#b8b8b8;}</style></defs><path class="a" d="M-1338,4566a84.1,84.1,0,0,1-84-84,84.1,84.1,0,0,1,84-84,84.1,84.1,0,0,1,84,84A84.1,84.1,0,0,1-1338,4566Zm-27.176-89.672a2.914,2.914,0,0,0-2.115.811c-2.2,2.151.968,6.838,6.724,15.348,2.9,4.283,6.5,9.608,10.42,16.089,6.325,10.3,13.342,14.69,23.463,14.69,12.889,0,19.633-11.27,19.633-22.4v-23.5a5.077,5.077,0,0,0-4.813-4.407,4.577,4.577,0,0,0-4.511,4.407v7.712h-1.5v-10.283a4.577,4.577,0,0,0-4.511-4.407,4.577,4.577,0,0,0-4.511,4.407v7.345h-1.592V4471.85a4.577,4.577,0,0,0-4.511-4.407,4.577,4.577,0,0,0-4.511,4.407v13.223h-3.008V4457.16a4.577,4.577,0,0,0-4.511-4.407,4.578,4.578,0,0,0-4.513,4.407v30.261C-1356.74,4480.061-1362,4476.329-1365.177,4476.329Zm20.144-35.328c-8.968,0-16.544,7.4-16.544,16.16a16.137,16.137,0,0,0,9.024,14.4v-3.526a13.163,13.163,0,0,1-6.016-10.87,13.4,13.4,0,0,1,13.536-13.222,13.4,13.4,0,0,1,13.534,13.222,12.717,12.717,0,0,1-2.405,7.344h.9a6.019,6.019,0,0,1,2.406.294,16.99,16.99,0,0,0,2.105-7.639C-1328.49,4448.4-1336.066,4441-1345.033,4441Zm0,8.814a7.355,7.355,0,0,1,7.52,7.345v7.051a9.678,9.678,0,0,0,3.007-7.051,10.547,10.547,0,0,0-10.526-10.285,10.548,10.548,0,0,0-10.528,10.285,9.674,9.674,0,0,0,3.008,7.051v-7.051A7.355,7.355,0,0,1-1345.033,4449.815Z" transform="translate(5044 -6548)"/></svg>