<svg xmlns="http://www.w3.org/2000/svg" viewBox="4262 -2150 168 168"><defs><style>.a{fill:#b8b8b8;}</style></defs><path class="a" d="M-1978,4566a84.1,84.1,0,0,1-84-84,84.1,84.1,0,0,1,84-84,84.1,84.1,0,0,1,84,84A84.1,84.1,0,0,1-1978,4566Zm33.918-57.641v8.806l9.524,8.834,8.558-8.834v-8.806h-3.363a30.493,30.493,0,0,1,0-9.2,33.493,33.493,0,0,0,0-9.338,46.151,46.151,0,0,1-.112-8.419c.031-.648.06-1.246.084-1.847.248-6.157.163-15.586.089-23.9-.032-3.523-.061-6.771-.061-9.4,0-.463-.03-.917-.06-1.366-.02-.292-.039-.583-.05-.874H-1940.7c-.022.179-.049.331-.073.466a2.98,2.98,0,0,0-.063.518c0,5.849.041,14.267.078,22.119.024,5.033.047,9.8.058,13.532a5.9,5.9,0,0,0,.266,1.492,7.4,7.4,0,0,1,.253,1.211,14.707,14.707,0,0,1,0,2.922,4.329,4.329,0,0,1-.228.948,3.7,3.7,0,0,0-.236,1.1c-.014,1-.047,2.012-.08,3.023a54.5,54.5,0,0,0,.189,8.882,30.468,30.468,0,0,1,.136,8.136Zm-19.236-64.349c-.023.179-.05.329-.073.464a2.991,2.991,0,0,0-.064.52q0,14.375.028,28.751a5.9,5.9,0,0,0,.266,1.491,7.412,7.412,0,0,1,.253,1.212,14.8,14.8,0,0,1,0,2.921,4.317,4.317,0,0,1-.229.949,3.7,3.7,0,0,0-.235,1.1c-.014,1.009-.047,2.023-.081,3.04a54.249,54.249,0,0,0,.19,8.865,23.994,23.994,0,0,1,0,7.291,36.317,36.317,0,0,0-.208,7.084c.032.9.064,1.8.071,2.69,0,.178,0,.359-.007.542a6.182,6.182,0,0,0,.253,2.406,6.089,6.089,0,0,1,.028,5.215,4.432,4.432,0,0,0,0,1.929,5.426,5.426,0,0,0,1.353,3.625,5.572,5.572,0,0,0,4.208,1.521,5.377,5.377,0,0,0,4.145-1.517,5.244,5.244,0,0,0,1.215-3.629v-1.519a6.958,6.958,0,0,1,.081-6.034,2.334,2.334,0,0,0,.144-1.153c0-.12-.007-.223-.007-.322,0-1.019.038-2.045.077-3.072a35.824,35.824,0,0,0-.186-6.921,30.526,30.526,0,0,1,0-9.2,33.5,33.5,0,0,0,0-9.338,46.286,46.286,0,0,1-.111-8.426c.03-.629.06-1.233.084-1.84.257-6.37.213-12.852.17-19.121-.017-2.473-.033-4.878-.033-7.282,0-.464-.03-.918-.06-1.369-.019-.292-.038-.581-.049-.871Zm-44.169,0c-.023.177-.05.326-.073.46a3.034,3.034,0,0,0-.064.523q0,14.375.028,28.751a5.9,5.9,0,0,0,.265,1.489,7.333,7.333,0,0,1,.253,1.214,14.631,14.631,0,0,1,0,2.921,4.286,4.286,0,0,1-.229.952,3.682,3.682,0,0,0-.235,1.1c-.014,1.012-.047,2.029-.081,3.048a54.256,54.256,0,0,0,.191,8.856,23.994,23.994,0,0,1,0,7.291,36.317,36.317,0,0,0-.208,7.084c.032.9.064,1.8.071,2.69,0,.186,0,.376-.008.568a6.113,6.113,0,0,0,.253,2.38,6.089,6.089,0,0,1,.028,5.215v.549a63.8,63.8,0,0,0,5.433,5.758,71.153,71.153,0,0,0,5.489-5.621v-.276a6.953,6.953,0,0,1,.081-6.034,2.334,2.334,0,0,0,.144-1.153c0-.12-.007-.223-.007-.322,0-1.019.038-2.045.077-3.072a35.824,35.824,0,0,0-.186-6.921,30.526,30.526,0,0,1,0-9.2,33.5,33.5,0,0,0,0-9.338,46.286,46.286,0,0,1-.111-8.426c.03-.629.06-1.233.084-1.84.257-6.369.213-12.852.17-19.121-.017-2.467-.033-4.875-.033-7.282,0-.464-.03-.918-.06-1.369-.019-.292-.038-.581-.049-.871Zm-22.817,0c-.023.175-.049.323-.073.456a3.054,3.054,0,0,0-.065.527q0,14.375.027,28.751a5.905,5.905,0,0,0,.265,1.488,7.355,7.355,0,0,1,.253,1.215,14.631,14.631,0,0,1,0,2.921,4.286,4.286,0,0,1-.229.952,3.678,3.678,0,0,0-.235,1.1c-.014,1.012-.047,2.029-.081,3.048a54.256,54.256,0,0,0,.191,8.856,23.994,23.994,0,0,1,0,7.291,36.314,36.314,0,0,0-.208,7.078c.032.908.064,1.8.071,2.7,0,.184,0,.371-.008.56a6.137,6.137,0,0,0,.254,2.388,6.089,6.089,0,0,1,.028,5.215,2.381,2.381,0,0,0,.409,2.211,41.141,41.141,0,0,0,3.542,2.941c.49.377.986.759,1.482,1.154l1.173-.917c1.3-1.01,2.525-1.964,3.66-3.014a2.261,2.261,0,0,0,.655-1.965,6.953,6.953,0,0,1,.081-6.034,2.335,2.335,0,0,0,.144-1.153c0-.111-.008-.218-.008-.322,0-1.019.038-2.045.077-3.073a35.833,35.833,0,0,0-.186-6.92,30.534,30.534,0,0,1,0-9.2,33.487,33.487,0,0,0,0-9.338,46.286,46.286,0,0,1-.111-8.425c.03-.619.059-1.229.084-1.841.257-6.37.213-12.852.17-19.121-.017-2.461-.033-4.873-.033-7.282,0-.464-.03-.918-.06-1.368-.019-.292-.038-.582-.049-.871Zm44.9,0c-.023.175-.049.323-.073.456a3.054,3.054,0,0,0-.065.527q0,14.375.026,28.751a5.881,5.881,0,0,0,.266,1.489,7.334,7.334,0,0,1,.253,1.214,14.692,14.692,0,0,1,0,2.921,4.33,4.33,0,0,1-.229.949,3.7,3.7,0,0,0-.236,1.1c-.014,1.008-.047,2.021-.081,3.036a54.427,54.427,0,0,0,.19,8.869,23.969,23.969,0,0,1,0,7.291,36.4,36.4,0,0,0-.207,7.085c.032.9.063,1.8.071,2.689,0,.182,0,.367-.008.554a6.152,6.152,0,0,0,.254,2.394,6.089,6.089,0,0,1,.027,5.215c-.267.561-.011,6.073,0,6.307h10.922v-5.9a6.957,6.957,0,0,1,.083-6.034,2.354,2.354,0,0,0,.144-1.155c0-.109-.007-.216-.007-.32,0-1.019.038-2.045.077-3.072a35.917,35.917,0,0,0-.185-6.921,30.5,30.5,0,0,1,0-9.2,33.5,33.5,0,0,0,0-9.338,46.156,46.156,0,0,1-.112-8.42c.03-.614.06-1.229.084-1.846.257-6.37.213-12.852.17-19.121-.017-2.461-.033-4.873-.033-7.282,0-.459-.03-.909-.059-1.354-.02-.3-.039-.591-.05-.885Zm-16.455,80.188h0l3.159-4.961h1.518Zm-.016,0-4.418-5.1,1.238.022,3.182,5.075Zm-23.409-1.087h0c-.033-1.821.989-2.872,2.071-3.984a9.786,9.786,0,0,0,1.78-2.239c1.241,2.8.593,3.851-3.849,6.224Zm64.557-8.491h0c-1.57-1.9-1.65-7.287-.136-9.146,1.408-1.713,2.908-3.4,4.358-5.034q.963-1.084,1.922-2.174c.09.013.186.031.282.05.125.025.225.045.318.059.071.529.16,1.06.249,1.59.48,2.865.976,5.828-1.45,8.485q-1.407,1.551-2.8,3.117-1.368,1.53-2.742,3.053Zm-22.085,0h0c-1.569-1.9-1.649-7.287-.136-9.146,1.406-1.71,2.9-3.387,4.336-5.008q.974-1.1,1.944-2.2c.089.012.184.031.28.05.128.026.228.046.322.059.071.529.16,1.058.249,1.588.48,2.866.976,5.83-1.451,8.487q-1.392,1.535-2.77,3.084c-.963,1.078-1.864,2.085-2.772,3.086Zm-22.084,0h0c-1.57-1.9-1.65-7.287-.136-9.146,1.41-1.715,2.909-3.4,4.358-5.034q.963-1.084,1.922-2.174c.09.013.186.031.282.05.125.025.225.045.318.059.071.526.159,1.053.247,1.58.481,2.875.978,5.838-1.448,8.5q-1.407,1.551-2.8,3.117-1.368,1.53-2.742,3.053Zm-22.817,0h0c-1.57-1.9-1.651-7.286-.137-9.146,1.41-1.714,2.906-3.4,4.353-5.026q.966-1.088,1.928-2.181c.1.013.2.034.305.055s.2.04.3.054c.071.529.16,1.058.249,1.588.48,2.866.976,5.83-1.451,8.487q-1.393,1.537-2.773,3.088c-.948,1.061-1.855,2.075-2.768,3.082Zm89.663-12.047c-.119-.03-.23-.069-.337-.106s-.182-.062-.263-.085l-.165-.973c-.569-3.3-1.158-6.713,1.831-9.676,1.246-1.209,2.411-2.53,3.538-3.807.54-.611,1.076-1.219,1.622-1.818,1.254,1.619,1.692,7.147.383,8.792-1.51,1.9-3.145,3.749-4.725,5.535-.638.72-1.264,1.427-1.883,2.138Zm-44.816-6.9c-.125-.032-.241-.072-.353-.111-.092-.032-.17-.058-.248-.081l-.164-.971c-.569-3.3-1.158-6.713,1.83-9.677,1.247-1.21,2.411-2.53,3.536-3.805.537-.609,1.075-1.219,1.624-1.82,1.254,1.621,1.693,7.148.383,8.792-1.515,1.909-3.154,3.761-4.739,5.551q-.94,1.061-1.868,2.122Zm-22.085,0c-.123-.031-.236-.07-.346-.108-.09-.031-.172-.06-.254-.083l-.165-.973c-.569-3.3-1.158-6.712,1.83-9.675,1.247-1.209,2.407-2.525,3.529-3.8.559-.634,1.09-1.236,1.633-1.829,1.254,1.621,1.691,7.149.382,8.792-1.51,1.9-3.144,3.749-4.724,5.535-.65.734-1.269,1.434-1.883,2.138Zm-22.818,0c-.125-.032-.241-.072-.354-.111-.085-.029-.166-.057-.246-.081l-.164-.968c-.57-3.3-1.16-6.716,1.829-9.68,1.243-1.205,2.4-2.522,3.528-3.8.551-.625,1.086-1.231,1.632-1.83,1.254,1.621,1.693,7.148.383,8.792-1.517,1.911-3.157,3.764-4.744,5.556l-.067.076q-.9,1.019-1.8,2.041Zm66.987,0c-.124-.032-.239-.071-.351-.11-.093-.032-.171-.059-.249-.082l-.165-.973c-.569-3.3-1.158-6.712,1.83-9.675,1.247-1.209,2.413-2.531,3.54-3.809.549-.623,1.08-1.224,1.621-1.817,1.254,1.621,1.691,7.149.382,8.792-1.519,1.915-3.156,3.763-4.739,5.551q-.938,1.059-1.868,2.122Zm22.406-11.83h0c-.106-.377-.22-.721-.326-1.041a5.951,5.951,0,0,1-.412-1.8c-.041-7.186-.136-25.031-.136-35.516h8.3c.058.734.109,1.392.109,2.047,0,2.028.014,4.781.03,7.789.033,6.421.071,13.655,0,17.872a5.807,5.807,0,0,1-1.12,3.276c-1.362,1.751-2.861,3.4-4.448,5.154-.655.722-1.316,1.451-1.995,2.216Zm-22.733-6.9h0c-.105-.376-.219-.72-.325-1.039a5.968,5.968,0,0,1-.412-1.8c-.041-7.094-.036-14.005-.031-21.323l0-7.291h8.3c.058.729.109,1.388.109,2.048l0,3.13c0,5.133.007,10.423-.084,15.627a5.784,5.784,0,0,1-1.12,3.276c-1.366,1.756-2.868,3.413-4.459,5.167-.664.733-1.315,1.451-1.983,2.2Zm-22.084,0h0c-.106-.377-.22-.721-.326-1.041a5.951,5.951,0,0,1-.412-1.8c-.041-7.118-.036-14.067-.031-21.424l0-7.19h8.3c.053.658.109,1.363.109,2.048v3.146c0,5.116.008,10.405-.083,15.611a5.794,5.794,0,0,1-1.12,3.276c-1.366,1.756-2.868,3.413-4.459,5.167-.664.733-1.315,1.451-1.983,2.2Zm-22.085,0h0c-.105-.376-.219-.72-.325-1.039a5.968,5.968,0,0,1-.412-1.8c-.041-7.061-.036-13.975-.031-21.295l0-7.319h8.3c.056.693.11,1.376.11,2.048l0,3.13c0,5.133.007,10.423-.084,15.627a5.792,5.792,0,0,1-1.12,3.276c-1.366,1.756-2.868,3.413-4.459,5.167-.668.737-1.317,1.453-1.983,2.2Zm-22.818,0h0c-.1-.376-.218-.718-.324-1.037a5.979,5.979,0,0,1-.412-1.8c-.041-7.066-.036-13.985-.031-21.312l0-7.3h8.3c.056.7.11,1.379.11,2.048v3.061c0,5.145.007,10.465-.084,15.7a5.793,5.793,0,0,1-1.12,3.276c-1.366,1.756-2.868,3.413-4.459,5.167-.664.733-1.315,1.451-1.983,2.2Z" transform="translate(6324 -6548)"/></svg>