<svg xmlns="http://www.w3.org/2000/svg" viewBox="6406 6784 169 169"><defs><style>.a{fill:#f3f3f3;stroke:#000;}.b{fill:#b8b8b8;}</style></defs><g transform="translate(5370 3337)"><circle class="a" cx="84" cy="84" r="84" transform="translate(1036.5 3447.5)"/><g transform="translate(1079.901 3490.876)"><g transform="translate(0 0.023)"><path class="b" d="M53.4,10.992c1.095-2.369,2.205-4.721,3.365-7.221C43.928-1.636,31.414-1.375,19.456,5.748,7.89,12.625,1.617,23.081,0,36.541c2.744.245,5.342.474,7.939.686C9.361,16.889,31.839,1.288,53.4,10.992Z" transform="translate(0 -0.023)"/><path class="b" d="M297.544,202.466c-2.581.441-5.146.9-7.825,1.356,1.389,9.311-.539,17.708-6.224,25.059-5.652,7.319-13.232,11.337-22.495,12.366.229,2.63.457,5.195.67,7.76C281.061,248.321,301.84,228.849,297.544,202.466Z" transform="translate(-218.363 -169.395)"/><path class="b" d="M9,262.066c-2.467.212-5.031.441-7.6.653C2,278.974,16.184,297.27,37.568,299c.229-2.63.457-5.211.67-7.711C21.51,288.5,11.822,278.81,9,262.066Z" transform="translate(-1.171 -219.259)"/><path class="b" d="M363.175,57.8a33.049,33.049,0,0,1,4.721,8.56c2.483-.9,4.933-1.8,7.5-2.728a40.307,40.307,0,0,0-14.621-19.064c-1.519,2.173-3.022,4.3-4.574,6.518A34.443,34.443,0,0,1,363.175,57.8Z" transform="translate(-298.011 -37.29)"/><path class="b" d="M119.784,138.863v-3.12a19.841,19.841,0,0,0,7.564-3.169l2.222,2.222a2.13,2.13,0,0,0,2.99,0l2.3-2.3a2.13,2.13,0,0,0,0-2.989l-2.254-2.254A19.97,19.97,0,0,0,135.7,119.7h3.2A2.112,2.112,0,0,0,141,117.594v-3.267a2.112,2.112,0,0,0-2.107-2.107h-3.218a19.976,19.976,0,0,0-3.12-7.5l2.287-2.287a2.13,2.13,0,0,0,0-2.99l-2.336-2.32a2.13,2.13,0,0,0-2.989,0l-2.287,2.287a20.049,20.049,0,0,0-7.515-3.12V93.073a2.112,2.112,0,0,0-2.107-2.107h-3.267a2.112,2.112,0,0,0-2.107,2.107v3.2a20,20,0,0,0-7.547,3.1l-2.238-2.222a2.13,2.13,0,0,0-2.99,0l-2.3,2.32a2.13,2.13,0,0,0,0,2.989l2.222,2.222a19.808,19.808,0,0,0-3.153,7.564h-3.12A2.112,2.112,0,0,0,91,114.359v3.267a2.112,2.112,0,0,0,2.107,2.107h3.1a20.07,20.07,0,0,0,3.137,7.6l-2.156,2.205a2.13,2.13,0,0,0,0,2.989l2.3,2.3a2.13,2.13,0,0,0,2.989,0l2.189-2.189a20.25,20.25,0,0,0,7.613,3.137v3.1a2.112,2.112,0,0,0,2.107,2.107h3.267A2.141,2.141,0,0,0,119.784,138.863Zm-11.468-15.176a10.881,10.881,0,1,1,15.389-.016A10.885,10.885,0,0,1,108.316,123.687Z" transform="translate(-76.134 -76.11)"/></g></g></g></svg>