<svg xmlns="http://www.w3.org/2000/svg" viewBox="6403.5 6481.5 169 169"><defs><style>.a{fill:#f3f3f3;stroke:#000;}.b{fill:none;stroke:#95989a;}</style></defs><g transform="translate(5370 3337)"><circle class="a" cx="84" cy="84" r="84" transform="translate(1034 3145)"/><g transform="translate(0 -9)"><line class="b" x2="84" transform="translate(1076.5 3259.5)"/><line class="b" x2="84" transform="translate(1076.5 3257.5)"/><line class="b" x2="84" transform="translate(1076.5 3243.5)"/><line class="b" x2="84" transform="translate(1076.5 3229.5)"/><line class="b" x2="84" transform="translate(1076.5 3255.5)"/><line class="b" x2="84" transform="translate(1076.5 3241.5)"/><line class="b" x2="84" transform="translate(1076.5 3227.5)"/><line class="b" x2="84" transform="translate(1076.5 3253.5)"/><line class="b" x2="84" transform="translate(1076.5 3239.5)"/><line class="b" x2="84" transform="translate(1076.5 3225.5)"/><line class="b" x2="84" transform="translate(1076.5 3251.5)"/><line class="b" x2="84" transform="translate(1076.5 3237.5)"/><line class="b" x2="84" transform="translate(1076.5 3223.5)"/><line class="b" x2="84" transform="translate(1076.5 3249.5)"/><line class="b" x2="84" transform="translate(1076.5 3235.5)"/><line class="b" x2="84" transform="translate(1076.5 3221.5)"/><line class="b" x2="84" transform="translate(1076.5 3247.5)"/><line class="b" x2="84" transform="translate(1076.5 3233.5)"/><line class="b" x2="84" transform="translate(1076.5 3219.5)"/><line class="b" x2="84" transform="translate(1076.5 3245.5)"/><line class="b" x2="84" transform="translate(1076.5 3231.5)"/><line class="b" x2="84" transform="translate(1076.5 3217.5)"/></g></g></svg>