<svg xmlns="http://www.w3.org/2000/svg" viewBox="145.46 2119.476 40.372 10.024"><defs><style>.a{stroke:rgba(0,0,0,0);}</style></defs><path class="a" d="M-20.04,0V-9.024h2.652v.66H-19.44V-4.98h1.824v.672H-19.44V-.66h2.052V0Zm5.112-9.024h2.664v.66H-13.3V0h-.612V-8.364h-1.02ZM-7.776,0V-4.32H-9.2V0h-.6V-9.024h.6v4.032h1.428V-9.024h.6V0Zm3.048,0V-9.024h2.652v.66H-4.128V-4.98H-2.3v.672H-4.128V-.66h2.052V0ZM1-8.364v3.816h.66A.459.459,0,0,0,2.01-4.7a1.043,1.043,0,0,0,.216-.39,2.85,2.85,0,0,0,.114-.534q.036-.294.06-.57a1.041,1.041,0,0,0,.012-.144.808.808,0,0,1,.012-.132q-.024-.324-.066-.66a3.292,3.292,0,0,0-.132-.612,1.192,1.192,0,0,0-.252-.45.555.555,0,0,0-.426-.174ZM.384,0V-9.024h1.44a.632.632,0,0,1,.414.186,1.806,1.806,0,0,1,.384.516,3.31,3.31,0,0,1,.282.8,4.593,4.593,0,0,1,.108,1.032,4.663,4.663,0,0,1-.234,1.638,1.826,1.826,0,0,1-.546.834,3.631,3.631,0,0,1,.288.69q.1.33.2.786v-.012L3.288,0H2.6L2.22-1.9q-.108-.564-.21-.918a5.47,5.47,0,0,0-.192-.57,1.3,1.3,0,0,0-.18-.324,1.511,1.511,0,0,0-.174-.18H1V0Zm5.34,0V-9.024H8.376v.66H6.324V-4.98H8.148v.672H6.324V-.66H8.376V0Zm6.264-3.7H13l-.5-3.492ZM13.548,0l-.456-2.988H11.88L11.484,0h-.66l1.32-9.024h.7L14.208,0Zm3.12,0V-9.024h.6V-.66h2.064V0Z" transform="translate(166 2129)"/></svg>