<svg xmlns="http://www.w3.org/2000/svg" viewBox="139 2177 105.08 24"><defs><style>.a{fill:#fff;}</style></defs><path class="a" d="M1.46,0V-15.04H5.88v1.1H2.46V-8.3H5.5v1.12H2.46V-1.1H5.88V0ZM9.98-15.04h4.44v1.1H12.7V0H11.68V-13.94H9.98ZM21.9,0V-7.2H19.52V0h-1V-15.04h1v6.72H21.9v-6.72h1V0Zm5.08,0V-15.04H31.4v1.1H27.98V-8.3h3.04v1.12H27.98V-1.1H31.4V0Zm9.54-13.94v6.36h1.1a.766.766,0,0,0,.59-.25,1.738,1.738,0,0,0,.36-.65,4.75,4.75,0,0,0,.19-.89q.06-.49.1-.95a1.735,1.735,0,0,0,.02-.24,1.347,1.347,0,0,1,.02-.22q-.04-.54-.11-1.1a5.487,5.487,0,0,0-.22-1.02,1.986,1.986,0,0,0-.42-.75.925.925,0,0,0-.71-.29ZM35.5,0V-15.04h2.4a1.054,1.054,0,0,1,.69.31,3.01,3.01,0,0,1,.64.86,5.517,5.517,0,0,1,.47,1.33,7.654,7.654,0,0,1,.18,1.72,7.771,7.771,0,0,1-.39,2.73,3.043,3.043,0,0,1-.91,1.39,6.052,6.052,0,0,1,.48,1.15q.16.55.34,1.31v-.02L40.34,0H39.2l-.64-3.16q-.18-.94-.35-1.53a9.115,9.115,0,0,0-.32-.95,2.158,2.158,0,0,0-.3-.54,2.517,2.517,0,0,0-.29-.3h-.78V0Zm8.9,0V-15.04h4.42v1.1H45.4V-8.3h3.04v1.12H45.4V-1.1h3.42V0ZM54.84-6.16h1.68l-.84-5.82ZM57.44,0l-.76-4.98H54.66L54,0H52.9l2.2-15.04h1.16L58.54,0Zm5.2,0V-15.04h1V-1.1h3.44V0Z" transform="translate(177 2196.04)"/><path class="a" d="M8459.1-4612.62v-11.88l-3.361-3.4-1.15,1.165,2.891,2.926v2.477l-4.113-4.165-1.194,1.21,5.308,5.373v2.357l-6.5-6.582-1.224,1.239Z" transform="translate(-8310.755 6810.896)"/><path class="a" d="M8449.75-4612.62v-11.88l3.361-3.4,1.15,1.165-2.891,2.926v2.477l4.113-4.165,1.194,1.21-5.308,5.373v2.357l6.5-6.582,1.224,1.239Z" transform="translate(-8296.102 6810.896)"/><path class="a" d="M8464.1-4629.16v-4.538l-2.154,2.181Z" transform="translate(-8315.76 6813.233)"/><path class="a" d="M8461.95-4629.28v-4.42l2.124,2.125Z" transform="translate(-8308.298 6813.042)"/><path class="a" d="M8468.5-4637.08l.856-.866.854.866v22.268l-.854.866-.856-.866Z" transform="translate(-8318.447 6814.946)"/></svg>