<svg xmlns="http://www.w3.org/2000/svg" viewBox="3302 -2526 168.001 168.001"><defs><style>.a{fill:#b8b8b8;}</style></defs><path class="a" d="M-1018,4942a84.1,84.1,0,0,1-84-84,84.1,84.1,0,0,1,84-84,84.1,84.1,0,0,1,84,84A84.1,84.1,0,0,1-1018,4942Zm-28.333-117.6a5.273,5.273,0,0,0-5.267,5.267v56.666a5.273,5.273,0,0,0,5.267,5.266h56.666a5.273,5.273,0,0,0,5.267-5.266v-56.666a5.273,5.273,0,0,0-5.267-5.267Zm56.666,62.721h-56.666a.789.789,0,0,1-.788-.788v-56.666a.789.789,0,0,1,.788-.789h56.666a.788.788,0,0,1,.786.789v56.666A.788.788,0,0,1-989.667,4887.121Zm-49.9-20.126a.825.825,0,0,0-.316.063.829.829,0,0,0-.512.768v11.507a.831.831,0,0,0,.83.83l11.51,0a.826.826,0,0,0,.766-.512.828.828,0,0,0-.18-.906l-4.328-4.329,22.9-23.068,7.154-7.153,4.33,4.329a.823.823,0,0,0,.587.244.827.827,0,0,0,.317-.063.829.829,0,0,0,.511-.768v-11.506a.824.824,0,0,0-.242-.588.823.823,0,0,0-.586-.243l-11.511,0a.825.825,0,0,0-.765.513.825.825,0,0,0,.179.9l4.334,4.333-30.057,30.217-4.33-4.33A.824.824,0,0,0-1039.571,4866.994Z" transform="translate(4404 -7300)"/></svg>