<svg xmlns="http://www.w3.org/2000/svg" viewBox="6365 -9 18 18"><defs><style>.a{fill:#fff;}</style></defs><g transform="translate(6334 -108)"><g transform="translate(-427.3 1037.8)"><path class="a" d="M115.2,139.28l.888-.884,4.92,4.9v-1.785l-4.032-4,.909-.906L121,139.712v-1.806l-2.219-2.205.9-.9,2.588,2.578v8.955Z" transform="translate(343.1 -1069.04)"/><path class="a" d="M326.291,139.475l-.888-.884c-1.631,1.63-4.92,4.9-4.92,4.9v-1.785l4.032-4-.909-.906-3.123,3.106V138.1l2.219-2.205-.909-.895-2.594,2.578v8.955Z" transform="translate(150.009 -1069.229)"/><path class="a" d="M272.142,67.2l-.642-.639V49.845l.642-.645.636.639V66.561Z" transform="translate(195.158 -988)"/><path class="a" d="M217.884,86.6v3.351L216.2,88.273C216.606,87.868,217.467,87.016,217.884,86.6Z" transform="translate(247.501 -1023.408)"/><path class="a" d="M319.4,86.4l1.658,1.651c-.417.416-1.235,1.289-1.658,1.71Z" transform="translate(149.82 -1023.218)"/></g></g></svg>