<svg xmlns="http://www.w3.org/2000/svg" viewBox="6468 -6 51.174 12"><defs><style>.a{fill:#fff;}</style></defs><g transform="translate(6010.7 559)"><g transform="translate(463.768 -565)"><path class="a" d="M158.572,434.97V424.164H157V423h4.338v1.149H159.66V434.97Z" transform="translate(-157 -423)"/></g><g transform="translate(470.675 -565)"><path class="a" d="M205.708,429.378h-1.934v5.592H202.7V423h1.073v5.214h1.934V423h1.073v11.955l-1.073.015Z" transform="translate(-202.7 -423)"/></g><g transform="translate(477.627 -565)"><path class="a" d="M248.7,423h3.733v1.149h-2.66v4.081h2.358v1.164h-2.358v4.413h2.66v1.149l-3.733.015Z" transform="translate(-248.7 -423)"/></g><g transform="translate(457.3 -565)"><path class="a" d="M114.2,423h3.718v1.149h-2.645v4.081h2.358v1.164h-2.358v4.413h2.645v1.149l-3.718.015Z" transform="translate(-114.2 -423)"/></g><g transform="translate(484.247 -565)"><path class="a" d="M292.5,434.97V423h2.01a1.065,1.065,0,0,1,.65.287,2.492,2.492,0,0,1,.529.71,4.307,4.307,0,0,1,.378,1.073,5.2,5.2,0,0,1,.136,1.36,6.135,6.135,0,0,1-.317,2.176,2.96,2.96,0,0,1-.65,1.058,4.86,4.86,0,0,1,.333.816c.076.287.166.62.257,1.013h0l.771,3.491H295.4l-.514-2.554a11.824,11.824,0,0,0-.272-1.179,6.81,6.81,0,0,0-.242-.725,1.162,1.162,0,0,0-.212-.378.868.868,0,0,0-.166-.166H293.6V435Zm1.783-6.181a.438.438,0,0,0,.348-.151,1.314,1.314,0,0,0,.242-.453,3.264,3.264,0,0,0,.151-.665c.03-.257.06-.5.076-.725a.737.737,0,0,0,.015-.181.735.735,0,0,1,.015-.181c-.015-.272-.045-.544-.076-.831a4.212,4.212,0,0,0-.166-.756,1.421,1.421,0,0,0-.3-.529.6.6,0,0,0-.408-.181h-.589v4.625A5.354,5.354,0,0,0,294.283,428.788Z" transform="translate(-292.5 -423)"/></g><g transform="translate(491.184 -565)"><path class="a" d="M338.4,423h3.718v1.149h-2.645v4.081h2.358v1.164h-2.358v4.413h2.645v1.149l-3.718.015Z" transform="translate(-338.4 -423)"/></g><g transform="translate(497.456 -565)"><path class="a" d="M383.467,434.97l-.589-3.854h-1.3l-.514,3.854H379.9L381.653,423h1.164l1.8,11.97Zm-.756-5.078-.484-3.31-.484,3.31Z" transform="translate(-379.9 -423)"/></g><g transform="translate(504.726 -565)"><path class="a" d="M428,423h1.073v10.806h2.675v1.149L428,434.97Z" transform="translate(-428 -423)"/></g></g></svg>