<svg xmlns="http://www.w3.org/2000/svg" viewBox="6083.998 5921.001 168.002 167.997"><defs><style>.a{fill:#b8b8b8;}</style></defs><path class="a" d="M-18025-3169a84.094,84.094,0,0,1-84-84,84.1,84.1,0,0,1,84-84,84.1,84.1,0,0,1,84,84A84.094,84.094,0,0,1-18025-3169Zm1.1-41.7h.9l9-14.3v-12.5l-2.3-6,2.3-7.776-2.3-6.258,2.3-7.09-2.3-7.676,2.3-6.8-2.3-6.9,2.3-6.1v-9.9h-9.9v91.3Zm-12.1-91.3v9.9l2.1,6.1-2.1,6.9,2.1,6.8-2.1,7.676,2.1,7.09-2.1,6.258,2.1,7.776-2.1,6v12.5l9.8,14.3h.8V-3302h-10.6Z" transform="translate(24193 9258)"/></svg>