<svg xmlns="http://www.w3.org/2000/svg" viewBox="6403 5545 168 168.001"><defs><style>.a{fill:#b8b8b8;}</style></defs><path class="a" d="M-1337,4942a84.1,84.1,0,0,1-84-84,84.1,84.1,0,0,1,84-84,84.1,84.1,0,0,1,84,84A84.1,84.1,0,0,1-1337,4942Zm-8.228-136.46a23.742,23.742,0,0,0-18.237,8.484,23.915,23.915,0,0,0-5.555,14.68l-.471,51.731a28.644,28.644,0,0,0,10.265,22.283,28.747,28.747,0,0,0,18.452,6.712,28.7,28.7,0,0,0,22.042-10.256l27.661-32.963a17.246,17.246,0,0,0-2.123-24.269l-36.764-30.85a23.788,23.788,0,0,0-15.266-5.553Zm4.458,101c-.682,0-1.372-.027-2.051-.081l-.378-4.311-1.1-.183a21.478,21.478,0,0,1-5.714-1.8l-1-.484-2.792,3.326a25.8,25.8,0,0,1-3.577-2.486,25.852,25.852,0,0,1-3.023-3.047l2.793-3.329-.647-.9a21.333,21.333,0,0,1-2.765-5.314l-.37-1.049-4.352.381a25.947,25.947,0,0,1-.877-6.794l.017-1.777,4.461-.391.182-1.1a21.358,21.358,0,0,1,1.8-5.714l.48-1-3.628-3.044,5.537-6.6,3.627,3.043.905-.647a21.4,21.4,0,0,1,5.315-2.763l1.048-.371-.412-4.718,8.582-.75.412,4.718,1.1.182a21.335,21.335,0,0,1,5.713,1.8l1,.48,3.044-3.626,6.6,5.535-3.042,3.628.647.905a21.414,21.414,0,0,1,2.765,5.314l.37,1.048,4.719-.413.749,8.582-4.718.413-.182,1.1a21.344,21.344,0,0,1-1.8,5.714l-.48,1,3.628,3.045-2.747,3.274a25.9,25.9,0,0,1-3.091,3.071l-3.326-2.792-.905.647a21.266,21.266,0,0,1-5.315,2.765l-1.048.371.377,4.311A25.986,25.986,0,0,1-1340.769,4906.538Zm.033-38.7a12.9,12.9,0,0,0-9.908,4.609,12.829,12.829,0,0,0-2.967,9.429,12.834,12.834,0,0,0,4.56,8.772,12.922,12.922,0,0,0,8.294,3.018,12.9,12.9,0,0,0,9.907-4.61,12.829,12.829,0,0,0,2.967-9.43,12.83,12.83,0,0,0-4.56-8.771,12.919,12.919,0,0,0-8.291-3.016Zm-5,38.24h0a25.763,25.763,0,0,1-5.45-1.72l.96-1.144a24.228,24.228,0,0,0,4.361,1.373l.13,1.489Zm14.3-1.251h0l-.131-1.488a24.21,24.21,0,0,0,4.057-2.109l1.144.96a25.757,25.757,0,0,1-5.068,2.639Zm-30.75-9.691h0a25.807,25.807,0,0,1-2.653-5.069l1.507-.133a24.176,24.176,0,0,0,2.11,4.057l-.962,1.145Zm45.845-3.273h0l-1.942-1.63a24.1,24.1,0,0,0,1.373-4.361l5.389-.471-1.25-14.3-5.39.473a24.124,24.124,0,0,0-2.11-4.057l3.477-4.143-11-9.228-3.475,4.143a24.294,24.294,0,0,0-4.361-1.373l-.471-5.389-14.3,1.25.473,5.39a24.149,24.149,0,0,0-4.057,2.11l-4.141-3.477-8.372,9.977.283-31.016,3.695-.324a18.673,18.673,0,0,0,1.372,2.632l-3.361,4.006,8.8,7.381,3.361-4a18.747,18.747,0,0,0,2.829.893l.455,5.208,11.442-1-.456-5.208a18.7,18.7,0,0,0,2.632-1.371l4,3.36,7.382-8.8-4.006-3.361a18.753,18.753,0,0,0,.894-2.83l5.208-.456-.976-11.152,26.8,22.489-1.909,2.274a11.441,11.441,0,0,0-5.78-1.815l-.26-2.968-2.859.252.259,2.967a11.425,11.425,0,0,0-5.378,2.792l-2.275-1.91-1.846,2.2,2.275,1.909a11.446,11.446,0,0,0-1.816,5.781l-2.967.259.251,2.859,2.967-.259a11.451,11.451,0,0,0,2.792,5.378l-1.909,2.275,2.2,1.845,1.909-2.274a11.458,11.458,0,0,0,5.781,1.816l.259,2.967,2.86-.251-.259-2.965a11.473,11.473,0,0,0,5.377-2.792l2.275,1.908-22.144,26.391Zm-24.415-1.067a10.053,10.053,0,0,1-6.451-2.346,10.063,10.063,0,0,1-1.239-14.158,10.035,10.035,0,0,1,7.706-3.584,10.054,10.054,0,0,1,6.451,2.347,10.06,10.06,0,0,1,1.239,14.157A10.033,10.033,0,0,1-1340.755,4890.79Zm-3.859-7.667-1.846,2.2,2.2,1.846,1.844-2.2Zm8.09-.707-1.846,2.2,2.2,1.846,1.845-2.2Zm-4.4-3.691-1.846,2.2,2.2,1.846,1.845-2.2Zm-4.4-3.692-1.846,2.2,2.2,1.845,1.846-2.2Zm8.09-.708-1.846,2.2,2.2,1.846,1.846-2.2Zm-29.347,1.476h0l.067-7.3,3.3,2.771a24.167,24.167,0,0,0-1.374,4.36l-1.995.173Zm62.306-12.052a8.618,8.618,0,0,1-5.532-2.013,8.623,8.623,0,0,1-1.062-12.134,8.6,8.6,0,0,1,6.6-3.073,8.615,8.615,0,0,1,5.53,2.012,8.623,8.623,0,0,1,1.062,12.135A8.6,8.6,0,0,1-1304.273,4863.749Zm.008-12.914a4.3,4.3,0,0,0-3.3,1.536,4.313,4.313,0,0,0,.531,6.067,4.3,4.3,0,0,0,2.765,1,4.3,4.3,0,0,0,3.3-1.535,4.313,4.313,0,0,0-.531-6.067A4.3,4.3,0,0,0-1304.265,4850.834Zm11.859,12.385h0l-2.219-1.862a11.445,11.445,0,0,0,1.816-5.78l2.886-.253a14.262,14.262,0,0,1-2.481,7.895Zm-11.864-6.646a1.439,1.439,0,0,1-.922-.334,1.44,1.44,0,0,1-.177-2.023,1.433,1.433,0,0,1,1.1-.512,1.432,1.432,0,0,1,.922.335,1.438,1.438,0,0,1,.177,2.023A1.433,1.433,0,0,1-1304.269,4856.573Zm11.212-3.857h0a11.448,11.448,0,0,0-2.793-5.375l1.863-2.219a14.271,14.271,0,0,1,3.814,7.344Zm-53.4-4.28h0l-.4-4.529-1.1-.182a15.669,15.669,0,0,1-4.188-1.324l-1.006-.479-2.922,3.483-4.4-3.691,2.923-3.482-.646-.9a15.72,15.72,0,0,1-2.03-3.9l-.371-1.048-5.6.49.037-4.114c.016-.545.055-1.105.117-1.666l4.948-.433.181-1.1a15.665,15.665,0,0,1,1.323-4.189l.479-1-3.4-2.852c.435-.636.84-1.175,1.237-1.648a20.824,20.824,0,0,1,2.633-2.6l3.22,2.7.9-.646a15.73,15.73,0,0,1,3.9-2.031l1.049-.37-.349-3.964a21.064,21.064,0,0,1,4.678-.527q.521,0,1.043.026l.345,3.965,1.1.182a15.639,15.639,0,0,1,4.19,1.322l1.007.479,2.7-3.219a20.677,20.677,0,0,1,3.045,2.1l1.575,1.322-2.922,3.484.646.9a15.724,15.724,0,0,1,2.03,3.9l.37,1.049,4.531-.4.5,5.722-4.529.4-.182,1.1a15.659,15.659,0,0,1-1.323,4.189l-.479,1.006,3.483,2.922-3.691,4.4-3.483-2.922-.9.646a15.693,15.693,0,0,1-3.9,2.03l-1.048.37.4,4.531Zm1.114-30.315a10.034,10.034,0,0,0-7.705,3.584,10.06,10.06,0,0,0,1.239,14.157,10.049,10.049,0,0,0,6.452,2.347,10.03,10.03,0,0,0,7.7-3.584,10.06,10.06,0,0,0-1.239-14.157A10.053,10.053,0,0,0-1345.34,4818.121Zm-.013,17.218a7.176,7.176,0,0,1-4.608-1.676,7.125,7.125,0,0,1-2.533-4.873,7.13,7.13,0,0,1,1.649-5.239,7.169,7.169,0,0,1,5.5-2.561,7.18,7.18,0,0,1,4.608,1.677,7.187,7.187,0,0,1,.884,10.112A7.165,7.165,0,0,1-1345.353,4835.339Zm-20.14-11.175h0a21.06,21.06,0,0,1,1.521-4.129l1.344,1.129a18.488,18.488,0,0,0-.893,2.829l-1.972.172Zm37.318-3.266h0a18.524,18.524,0,0,0-1.371-2.63l1.517-1.807,4.775,4.007Zm-27.069-8.534h0l-.988-.829a20.649,20.649,0,0,1,3.515-1.74l.1,1.2A18.515,18.515,0,0,0-1355.243,4812.365Zm16.9-1.478a18.535,18.535,0,0,0-2.828-.894l-.1-1.2a20.838,20.838,0,0,1,3.763,1.1l-.829.989Z" transform="translate(7824 771)"/></svg>