<svg xmlns="http://www.w3.org/2000/svg" viewBox="3252 4855 76.761 92"><g transform="translate(3174 4232)"><g transform="translate(-375.3 1561.8)"><path d="M115.2,150.679l3.146-3.134,17.438,17.371V158.59l-14.291-14.18,3.222-3.21,11.05,11.008v-6.4l-7.866-7.817,3.2-3.191,9.174,9.139v31.739Z" transform="translate(343.1 -1057.438)"/><path d="M344.333,150.86l-3.146-3.134c-5.781,5.778-17.438,17.371-17.438,17.371v-6.325l14.291-14.18-3.222-3.21L323.749,152.39v-6.4l7.866-7.817L328.393,135l-9.193,9.139v31.739l11.066-11.015Z" transform="translate(177.766 -1057.6)"/><path d="M273.775,113l-2.275-2.266V51.485l2.275-2.285,2.256,2.266v59.268Z" transform="translate(216.425 -988)"/><path d="M222.171,86.6V98.476L216.2,92.529C217.641,91.094,220.692,88.073,222.171,86.6Z" transform="translate(261.244 -1018.339)"/><path d="M319.4,86.4l5.876,5.853c-1.478,1.473-4.378,4.569-5.876,6.061Z" transform="translate(177.604 -1018.176)"/></g><g transform="translate(-379.3 1262)"><g transform="translate(467.003 -565)"><path d="M159.358,440.955V424.746H157V423h6.506v1.723H160.99v16.232Z" transform="translate(-157 -423)"/></g><g transform="translate(477.363 -565)"><path d="M207.211,432.567h-2.9v8.388H202.7V423h1.61v7.821h2.9V423h1.61v17.932l-1.61.023Z" transform="translate(-202.7 -423)"/></g><g transform="translate(487.791 -565)"><path d="M248.7,423h5.6v1.723h-3.99v6.121h3.537v1.746H250.31v6.62h3.99v1.723l-5.6.023Z" transform="translate(-248.7 -423)"/></g><g transform="translate(457.3 -565)"><path d="M114.2,423h5.577v1.723H115.81v6.121h3.537v1.746H115.81v6.62h3.967v1.723l-5.577.023Z" transform="translate(-114.2 -423)"/></g><g transform="translate(497.721 -565)"><path d="M292.5,440.955V423h3.015a1.6,1.6,0,0,1,.975.431,3.739,3.739,0,0,1,.794,1.066,6.461,6.461,0,0,1,.567,1.61,7.8,7.8,0,0,1,.2,2.04,9.2,9.2,0,0,1-.476,3.265A4.44,4.44,0,0,1,296.6,433a7.289,7.289,0,0,1,.5,1.224c.113.431.249.93.385,1.519h0l1.156,5.237h-1.791l-.771-3.831a17.725,17.725,0,0,0-.408-1.768,10.21,10.21,0,0,0-.363-1.088,1.742,1.742,0,0,0-.317-.567,1.3,1.3,0,0,0-.249-.249h-.589V441Zm2.675-9.272a.657.657,0,0,0,.521-.227,1.972,1.972,0,0,0,.363-.68,4.9,4.9,0,0,0,.227-1c.045-.385.091-.748.113-1.088a1.107,1.107,0,0,0,.023-.272,1.1,1.1,0,0,1,.023-.272c-.023-.408-.068-.816-.113-1.247a6.307,6.307,0,0,0-.249-1.133,2.131,2.131,0,0,0-.453-.793.9.9,0,0,0-.612-.272h-.884v6.937A8.03,8.03,0,0,0,295.175,431.683Z" transform="translate(-292.5 -423)"/></g><g transform="translate(508.126 -565)"><path d="M338.4,423h5.577v1.723H340.01v6.121h3.537v1.746H340.01v6.62h3.967v1.723l-5.577.023Z" transform="translate(-338.4 -423)"/></g><g transform="translate(517.534 -565)"><path d="M385.25,440.955l-.884-5.781h-1.95l-.771,5.781H379.9L382.53,423h1.746l2.7,17.955Zm-1.134-7.617-.725-4.965-.725,4.965Z" transform="translate(-379.9 -423)"/></g><g transform="translate(528.439 -565)"><path d="M428,423h1.61v16.209h4.013v1.723l-5.622.023Z" transform="translate(-428 -423)"/></g></g></g></svg>