<svg xmlns="http://www.w3.org/2000/svg" viewBox="6380 381 20 20"><defs><style>.a{fill:#fff;}.b{fill:#222;}</style></defs><g transform="translate(5244 -1291)"><rect class="a" width="20" height="20" rx="5" transform="translate(1136 1672)"/><g transform="translate(1139.333 1675.333)"><path class="b" d="M354.263,124.166a.58.58,0,1,0-.58.58.581.581,0,0,0,.58-.58" transform="translate(-343.249 -121.267)"/><path class="b" d="M145.009,147.618a2.609,2.609,0,1,1,2.609-2.609,2.675,2.675,0,0,1-2.609,2.609m0-6.377a3.768,3.768,0,1,0,3.768,3.768,3.761,3.761,0,0,0-3.768-3.768" transform="translate(-138.342 -138.342)"/><path class="b" d="M65.139,63.517a1.621,1.621,0,0,1-1.623,1.623H55.748a1.62,1.62,0,0,1-1.623-1.623V55.749a1.62,1.62,0,0,1,1.623-1.623h7.768a1.621,1.621,0,0,1,1.623,1.623ZM63.4,52.966H55.864a2.907,2.907,0,0,0-2.9,2.9V63.4a2.907,2.907,0,0,0,2.9,2.9H63.4a2.907,2.907,0,0,0,2.9-2.9V55.865a2.907,2.907,0,0,0-2.9-2.9Z" transform="translate(-52.965 -52.966)"/></g></g></svg>