<svg xmlns="http://www.w3.org/2000/svg" viewBox="6410 413 20 20"><defs><style>.a{fill:#fff;}.b{fill:#222;}</style></defs><g transform="translate(5076 -1251)"><rect class="a" width="20" height="20" rx="5" transform="translate(1334 1664)"/><g transform="translate(1338 1662.576)"><path class="b" d="M1.4,5.424a1.4,1.4,0,0,1,0,2.793,1.4,1.4,0,0,1,0-2.793" transform="translate(0 0)"/><path class="b" d="M9.96,172.1h-1.6a.4.4,0,0,1-.4-.4V164.72a.384.384,0,0,1,.379-.4H9.96a.4.4,0,0,1,.4.4v7a.4.4,0,0,1-.4.379" transform="translate(-7.785 -155.305)"/><path class="b" d="M183.269,158.127a2.557,2.557,0,0,0-2.574-2.634h-.419a2.43,2.43,0,0,0-2,1l-.2.2v-.8a.256.256,0,0,0-.2-.2h-2a.212.212,0,0,0-.2.18v7.442c0,.08.12.16.2.16h2.195c.08,0,.2-.08.2-.16V159a1.327,1.327,0,0,1,2.275-.978,1.313,1.313,0,0,1,.339.958v4.29a.256.256,0,0,0,.2.2h2a.256.256,0,0,0,.2-.2v-5.148Z" transform="translate(-171.716 -146.677)"/></g></g></svg>