<svg xmlns="http://www.w3.org/2000/svg" viewBox="4262 -2526 168 168.001"><defs><style>.a{fill:#b8b8b8;}</style></defs><path class="a" d="M-1978,4942a84.1,84.1,0,0,1-84-84,84.1,84.1,0,0,1,84-84,84.1,84.1,0,0,1,84,84A84.1,84.1,0,0,1-1978,4942Zm-27.333-124.071c-2.355,0-4.666,2.106-4.666,4.253v73.225c0,2.264,2.422,3.665,4.666,3.665h54.534c2.359,0,4.8-1.371,4.8-3.665V4840.7a14.139,14.139,0,0,0-4.4-9.684l-9.2-8.965a14.6,14.6,0,0,0-10-4.123Zm39.267,70.542a9.525,9.525,0,0,1-6.933-2.684c-1.75-1.849-2.6-4.909-2.6-9.356,0-4.365.965-7.557,2.868-9.488a8.931,8.931,0,0,1,6.667-2.488,8.744,8.744,0,0,1,6.668,2.552c1.9,2,2.866,5.215,2.866,9.553-.068,4.324-1.033,7.5-2.868,9.425A8.933,8.933,0,0,1-1966.067,4888.471Zm0-19.175a2.419,2.419,0,0,0-1.332.395,2.661,2.661,0,0,0-.868,1.439,19.787,19.787,0,0,0-.533,5.365,17.771,17.771,0,0,0,.466,5.169,2.82,2.82,0,0,0,.934,1.57,2.227,2.227,0,0,0,1.266.395,2.421,2.421,0,0,0,1.333-.395,2.661,2.661,0,0,0,.866-1.439,19.39,19.39,0,0,0,.535-5.365,17.771,17.771,0,0,0-.466-5.169,2.854,2.854,0,0,0-.934-1.57A2.232,2.232,0,0,0-1966.067,4869.3Zm-24,19.175a9.531,9.531,0,0,1-6.934-2.684c-1.749-1.849-2.6-4.91-2.6-9.356,0-4.366.964-7.558,2.866-9.488a8.932,8.932,0,0,1,6.668-2.488,8.74,8.74,0,0,1,6.665,2.552c1.9,2,2.867,5.216,2.867,9.553,0,4.192-.992,7.452-2.867,9.425A8.931,8.931,0,0,1-1990.066,4888.471Zm0-19.175a2.431,2.431,0,0,0-1.335.395,2.679,2.679,0,0,0-.867,1.439,19.8,19.8,0,0,0-.532,5.365,17.739,17.739,0,0,0,.466,5.169,2.82,2.82,0,0,0,.932,1.57,2.235,2.235,0,0,0,1.268.395,2.42,2.42,0,0,0,1.333-.395,2.652,2.652,0,0,0,.866-1.439,19.723,19.723,0,0,0,.535-5.365,17.719,17.719,0,0,0-.468-5.169,2.844,2.844,0,0,0-.933-1.57A2.232,2.232,0,0,0-1990.066,4869.3Zm0-13.282a9.534,9.534,0,0,1-6.934-2.684c-1.749-1.85-2.6-4.91-2.6-9.357,0-4.365.964-7.558,2.866-9.489a8.938,8.938,0,0,1,6.668-2.487,8.745,8.745,0,0,1,6.665,2.553c1.9,2,2.867,5.214,2.867,9.554,0,4.19-.992,7.449-2.867,9.424A8.938,8.938,0,0,1-1990.066,4856.014Zm0-19.173a2.435,2.435,0,0,0-1.335.392,2.675,2.675,0,0,0-.867,1.44,19.79,19.79,0,0,0-.532,5.365,17.725,17.725,0,0,0,.466,5.169,2.844,2.844,0,0,0,.933,1.572,2.231,2.231,0,0,0,1.268.392,2.426,2.426,0,0,0,1.333-.392,2.674,2.674,0,0,0,.866-1.44,19.715,19.715,0,0,0,.535-5.366,17.724,17.724,0,0,0-.468-5.17,2.85,2.85,0,0,0-.933-1.57A2.226,2.226,0,0,0-1990.066,4836.841Zm27.332,18.387h-2.732a1.7,1.7,0,0,1-1.867-1.832v-9.75a2.144,2.144,0,0,0-2.174-2.041,2.09,2.09,0,0,0-.759.142c-.156.061-.383.122-.636.19-.3.082-.619.167-.9.269a2.275,2.275,0,0,1-.637.091,2.376,2.376,0,0,1-1.542-.572,1.948,1.948,0,0,1-.687-1.482v-1.113a2.115,2.115,0,0,1,1.4-1.9l.233-.094a25.562,25.562,0,0,0,3.5-1.608,12.908,12.908,0,0,0,2.665-2.943,2.1,2.1,0,0,1,1.735-.917h2.4a2.108,2.108,0,0,1,2.066,2.094V4853.4A1.9,1.9,0,0,1-1962.734,4855.228Z" transform="translate(6324 -7300)"/></svg>