<svg xmlns="http://www.w3.org/2000/svg" viewBox="6482 317 24 24"><defs><style>.a{fill:#fff;}</style></defs><g transform="translate(6023.7 1255.8)"><path class="a" d="M115.2,140.773l1.184-1.179,6.56,6.534v-2.379l-5.376-5.334,1.212-1.207,4.157,4.141v-2.408L119.977,136l1.2-1.2,3.451,3.438v11.94Z" transform="translate(343.1 -1067.52)"/><path class="a" d="M328.655,140.966l-1.184-1.179c-2.175,2.173-6.56,6.534-6.56,6.534v-2.379l5.376-5.334-1.212-1.207-4.164,4.141v-2.408l2.959-2.941L322.658,135l-3.458,3.438v11.94Z" transform="translate(153.645 -1067.706)"/><path class="a" d="M272.356,73.2l-.856-.852V50.059l.856-.859.848.852v22.3Z" transform="translate(197.944 -988)"/><path class="a" d="M218.446,86.6v4.468L216.2,88.83C216.742,88.29,217.89,87.154,218.446,86.6Z" transform="translate(249.301 -1022.744)"/><path class="a" d="M319.4,86.4l2.21,2.2c-.556.554-1.647,1.719-2.21,2.28Z" transform="translate(153.46 -1022.558)"/></g></svg>