<svg xmlns="http://www.w3.org/2000/svg" viewBox="6723.5 7131.5 169 169"><defs><style>.a{fill:#f3f3f3;stroke:#000;}.b{fill:#b8b8b8;}</style></defs><g transform="translate(5370 3337)"><circle class="a" cx="84" cy="84" r="84" transform="translate(1354 3795)"/><g transform="translate(1399.728 3839.423)"><g transform="translate(0 0.577)"><path class="b" d="M22.4,10.71H21.369a2.11,2.11,0,0,0-2.2,2.015v8.533H24.6V12.725A2.114,2.114,0,0,0,22.4,10.71Z" transform="translate(9.065 4.214)"/><path class="b" d="M32.286,10.71H31.249a2.111,2.111,0,0,0-2.194,2.015v8.533h5.43V12.725A2.116,2.116,0,0,0,32.286,10.71Z" transform="translate(13.738 4.214)"/><path class="b" d="M38.23.577A38.237,38.237,0,0,0,26.344,75.152a3.682,3.682,0,1,0,2.287-7A30.993,30.993,0,0,1,16.353,60.58,30.866,30.866,0,1,1,69.1,38.807a30.659,30.659,0,0,1-9.034,21.821c-2.237,2.006-7.785,6.044-11.118,6.044a5.052,5.052,0,0,1-4.03-1.694C42.28,62.044,41.7,56.1,41.726,51.959A12.083,12.083,0,0,0,53.2,39.9V28.441H23.256V39.9a12.089,12.089,0,0,0,11.1,12.043c-.038,4.934.654,13.02,5.065,17.946a12.421,12.421,0,0,0,9.523,4.15c7.123,0,15.232-7.195,16.13-8.012l.118-.112A38.237,38.237,0,0,0,38.23.577Z" transform="translate(0 -0.577)"/></g></g></g></svg>