<svg xmlns="http://www.w3.org/2000/svg" viewBox="6083.5 6481.5 169 169">
  <defs>
    <style>
      .cls-1 {
        fill: #f3f3f3;
      }

      .cls-1, .cls-2 {
        stroke: #000;
      }

      .cls-2, .cls-6 {
        fill: none;
      }

      .cls-2 {
        stroke-width: 0.25px;
      }

      .cls-3 {
        font-size: 10px;
        font-family: Roboto-Thin, Roboto;
        font-weight: 200;
      }

      .cls-4 {
        fill: #b8b8b8;
        stroke: #95989a;
      }

      .cls-5 {
        stroke: none;
      }
    </style>
  </defs>
  <g id="Footprint" transform="translate(5370 3337)">
    <circle id="Ellipse_1" data-name="Ellipse 1" class="cls-1" cx="84" cy="84" r="84" transform="translate(714 3145)"/>
    <g id="Group_275" data-name="Group 275" transform="translate(-9.805 -2.4)">
      <g id="Group_273" data-name="Group 273" transform="translate(852.61 3188.508) rotate(90)">
        <path id="Path_97" data-name="Path 97" class="cls-2" d="M0,0V75.037" transform="translate(2.696 2.583)"/>
        <path id="Path_96" data-name="Path 96" class="cls-2" d="M0,0,3.813.032.032,3.813Z" transform="translate(2.696) rotate(45)"/>
        <path id="Path_98" data-name="Path 98" class="cls-2" d="M0,0,3.813.032.032,3.813Z" transform="translate(2.696 80.203) rotate(-135)"/>
      </g>
      <g id="Group_274" data-name="Group 274" transform="translate(756.367 3201.694)">
        <path id="Path_97-2" data-name="Path 97" class="cls-2" d="M0,.4V68.559" transform="translate(2.673 2.15)"/>
        <path id="Path_96-2" data-name="Path 96" class="cls-2" d="M.144.144,3.781,0,0,3.781Z" transform="translate(2.673 0) rotate(45)"/>
        <path id="Path_98-2" data-name="Path 98" class="cls-2" d="M.144.144,3.781,0,0,3.781Z" transform="translate(2.673 73.259) rotate(-135)"/>
      </g>
      <text id="_900" data-name="900" class="cls-3" transform="translate(753.694 3246.034) rotate(-90)"><tspan x="0" y="0">900</tspan></text>
      <text id="_900-2" data-name="900" class="cls-3" transform="translate(802.484 3186.5)"><tspan x="0" y="0">900</tspan></text>
      <g id="Rectangle_155" data-name="Rectangle 155" class="cls-4" transform="translate(772.408 3201.229)">
        <rect class="cls-5" width="80.203" height="73.519"/>
        <rect class="cls-6" x="0.5" y="0.5" width="79.203" height="72.519"/>
      </g>
    </g>
  </g>
</svg>
