<svg xmlns="http://www.w3.org/2000/svg" viewBox="6083.5 6481.5 169 169"><defs><style>.a{fill:#f3f3f3;}.a,.b{stroke:#000;}.b,.f{fill:none;}.b{stroke-width:0.25px;}.c{font-size:10px;font-family:Roboto-Thin, Roboto;font-weight:200;}.d{fill:#b8b8b8;stroke:#95989a;}.e{stroke:none;}</style></defs><g transform="translate(5370 3337)"><circle class="a" cx="84" cy="84" r="84" transform="translate(714 3145)"/><g transform="translate(-9.805 -2.4)"><g transform="translate(852.61 3188.508) rotate(90)"><path class="b" d="M0,0V75.037" transform="translate(2.696 2.583)"/><path class="b" d="M0,0,3.813.032.032,3.813Z" transform="translate(2.696) rotate(45)"/><path class="b" d="M0,0,3.813.032.032,3.813Z" transform="translate(2.696 80.203) rotate(-135)"/></g><g transform="translate(756.367 3201.694)"><path class="b" d="M0,.4V68.559" transform="translate(2.673 2.15)"/><path class="b" d="M.144.144,3.781,0,0,3.781Z" transform="translate(2.673 0) rotate(45)"/><path class="b" d="M.144.144,3.781,0,0,3.781Z" transform="translate(2.673 73.259) rotate(-135)"/></g><text class="c" transform="translate(753.694 3246.034) rotate(-90)"><tspan x="0" y="0">550</tspan></text><text class="c" transform="translate(802.484 3186.5)"><tspan x="0" y="0">600</tspan></text><g class="d" transform="translate(772.408 3201.229)"><rect class="e" width="80.203" height="73.519"/><rect class="f" x="0.5" y="0.5" width="79.203" height="72.519"/></g></g></g></svg>