<svg xmlns="http://www.w3.org/2000/svg" viewBox="6403.5 7131.5 169 169"><defs><style>.a{fill:#f3f3f3;stroke:#000;}.b{fill:#b8b8b8;}</style></defs><g transform="translate(5370 3337)"><circle class="a" cx="84" cy="84" r="84" transform="translate(1034 3795)"/><g transform="translate(1068.971 3675.439)"><g transform="translate(0 162.661)"><path class="b" d="M768.711,596.005q-.011-.32-.022-.642t-.024-.647l-.006-.162,0-.081v-.02l0-.182v-.008l0-.034-.021-.269-.084-1.08-.021-.273-.032-.354q-.034-.353-.067-.706l-.069-.7-.035-.349-.043-.322c-.118-.851-.223-1.687-.372-2.49-.071-.4-.136-.8-.21-1.183l-.235-1.126c-.145-.733-.326-1.417-.48-2.049l-.115-.464-.122-.44-.229-.811c-.073-.254-.138-.492-.205-.711l-.191-.6-.215-.666a.508.508,0,0,0-.624-.333L748.7,584.026a.508.508,0,0,0-.361.582l.061.33.078.412c.027.15.048.315.075.489l.085.556c.015.1.032.2.045.3l.036.317c.046.432.115.895.146,1.391l.063.76c.016.26.024.526.038.8.036.538.029,1.1.039,1.663l0,.21-.007.186-.013.373q0,.186-.01.373l0,.187-.011.269q-.023.542-.046,1.083l-.011.27,0,.034v.008c0,.041,0-.321,0-.165v.013l0,.053-.01.106-.038.423-.037.419q-.025.208-.049.413c-.035.273-.057.544-.1.808l-.113.778-.129.74c-.038.24-.088.472-.133.7s-.085.441-.133.647l-.137.591-.062.271-.061.219-.034.126h20.276a.507.507,0,0,0,.508-.485s0,0,0,0l.052-1.162q.011-.594.023-1.212c.012-.411,0-.829,0-1.251Q768.715,596.326,768.711,596.005Z" transform="translate(-670.67 -536.28)"/><path class="b" d="M676.437,352.283a.509.509,0,0,0,.271-.69l-.195-.411-.23-.485-.35-.714-.4-.809c-.072-.148-.142-.27-.216-.409l-.226-.417c-.155-.283-.313-.579-.482-.883l-.542-.929-.284-.483-.3-.487-.631-1c-.452-.666-.9-1.362-1.4-2.04l-.371-.514-.187-.257-.194-.253-.782-1.013c-.266-.334-.541-.661-.81-.99-.136-.163-.268-.329-.407-.488l-.417-.475-.414-.47c-.137-.157-.274-.31-.416-.459l-.832-.886c-.273-.29-.557-.563-.826-.835s-.535-.537-.8-.784l-.776-.727c-.25-.235-.5-.449-.742-.66l-.687-.6-.636-.524-.559-.458c-.173-.141-.339-.263-.484-.377l-.534-.41a.508.508,0,0,0-.7.08l-8.9,10.77a.508.508,0,0,0,.034.685l.257.254c.093.093.2.191.307.306l.352.372.4.421.428.482c.147.169.308.338.461.525l.479.575c.167.194.327.4.492.617s.338.425.5.651l.5.687c.086.114.168.233.249.354l.246.362.248.363c.083.122.159.249.239.373.157.251.32.5.474.751l.451.765.113.19.105.194.21.385c.289.5.532,1.025.787,1.514l.344.738.167.356.151.354.29.676.25.64.118.3c.036.1.081.2.106.279l.162.475.146.415.162.485.144.432a.509.509,0,0,0,.672.31Z" transform="translate(-583.668 -313.838)"/><path class="b" d="M452.62,246.6l.446.061.523.091.593.1c.181.03.369.074.565.115l5.615-11.486-.825-.129c-.185-.028-.368-.059-.55-.082l-.539-.065-1.031-.123-.966-.083c-.31-.024-.6-.055-.888-.068l-.8-.039-.7-.033-.6-.01-.642-.008a.508.508,0,0,0-.514.485l-.512,10.691a.508.508,0,0,0,.439.529Z" transform="translate(-405.16 -227.389)"/><path class="b" d="M596.962,280.512l.428.312.377.27c.05.035.134.1.2.148l.2.149.365.272a.508.508,0,0,0,.729-.129l7.331-11.168a.508.508,0,0,0-.172-.72l-.395-.226-.217-.124-.259-.147-.675-.372-.768-.419-.811-.407c-.284-.139-.573-.293-.884-.432l-.957-.439c-.326-.154-.671-.294-1.02-.441s-.7-.3-1.073-.439l-.282-.107-3.163,13.728c.175.11.34.226.5.331Z" transform="translate(-534.411 -255.418)"/><path class="b" d="M203.067,249.2c.142-.019.281-.042.419-.056l.411-.042.786-.082.737-.049.346-.024c.113-.008.225-.017.322-.017l.566-.015.5-.016.519,0,.455,0a.508.508,0,0,0,.5-.542l-.66-10.071a.508.508,0,0,0-.571-.472l-.451.057-.525.067-.731.108-.829.126c-.149.021-.287.049-.431.076l-.442.084-.937.181-1,.227-.518.119c-.175.041-.35.091-.527.137l-1.085.289-1.11.335c-.187.058-.376.113-.564.174l-.564.192-.568.195c-.19.065-.38.13-.568.2l-1.132.432c-.376.147-.746.31-1.116.465-.185.079-.37.155-.553.236l-.542.25-.537.249c-.178.082-.355.163-.528.253l-1.024.517c-.336.169-.657.355-.975.526s-.628.341-.922.52l-.861.511c-.279.163-.538.338-.791.5l-.722.463-.638.438-.559.385c-.173.119-.325.237-.466.339l-.485.358a.508.508,0,0,0-.118.7l4.182,6.148a.508.508,0,0,0,.67.157l.375-.211c.125-.069.26-.151.412-.23l.493-.257.559-.292.63-.3c.221-.1.445-.221.686-.323l.742-.326c.252-.116.519-.218.79-.326s.544-.224.829-.325l.864-.312c.145-.055.294-.1.443-.149l.449-.145.452-.146c.152-.046.306-.087.459-.132.307-.085.613-.179.923-.258l.928-.23c.153-.041.309-.073.463-.1l.462-.1.457-.1c.152-.03.3-.054.456-.081l.893-.155Z" transform="translate(-165.452 -230.046)"/><path class="b" d="M30.059,365.106l-.33.467-.332.471c-.111.158-.214.321-.322.482-.212.324-.429.645-.637.972l-.608.989-.151.246-.143.25-.284.5c-.386.656-.721,1.326-1.062,1.963l-.467.956-.225.463-.206.458-.394.878-.344.83c-.108.267-.217.52-.31.765l-.261.7-.228.612-.179.525-.18.533a.508.508,0,0,0,.3.637l3.892,1.492a.509.509,0,0,0,.641-.255l.2-.423.214-.445.268-.517.3-.586c.108-.206.232-.417.355-.64l.389-.692.439-.727.228-.379.246-.381.507-.783c.366-.518.724-1.064,1.128-1.59l.3-.4.149-.2.156-.2.626-.788c.213-.26.434-.513.648-.768.109-.127.213-.256.325-.379l.333-.368.33-.364c.108-.122.218-.241.331-.355l.662-.685c.217-.225.443-.433.657-.644s.424-.416.638-.6l.615-.559c.2-.182.4-.344.587-.507l.541-.461.48-.38.419-.334c.059-.049.14-.108.208-.16l.2-.15.363-.274a.508.508,0,0,0,.08-.736l-4.432-5.192a.508.508,0,0,0-.74-.037l-.328.316-.18.173c-.064.062-.125.119-.2.2l-.492.5-.557.565-.574.621c-.2.218-.41.438-.616.679l-.64.742c-.222.252-.438.522-.659.8s-.451.551-.672.842l-.671.888C30.278,364.8,30.167,364.951,30.059,365.106Z" transform="translate(-20.958 -338.006)"/><path class="b" d="M1.048,598.035l-.091.446-.1.514c-.037.191-.074.417-.114.647l-.127.741c-.022.13-.046.264-.067.4l-.056.413c-.073.563-.168,1.168-.223,1.815l-.1.992c-.028.339-.046.686-.07,1.038-.056.7-.066,1.432-.089,2.17L0,607.488v.278l0,.559q0,.28,0,.56l0,.28.011.281.046,1.119.011.278,0,.09,0,.067.01.134.039.535q.02.266.039.53t.053.548l.053.541.027.267.033.261.13,1.019.15.971c.045.316.1.621.158.916l.013.07a.509.509,0,0,0,.5.416H2.662a.509.509,0,0,0,.508-.539q-.007-.117-.015-.236c-.017-.284-.038-.578-.044-.881s-.02-.613-.03-.93,0-.641-.006-.971l0-.248q0-.122.005-.246.005-.247.011-.5t.011-.5q.012-.264.025-.531t.025-.535l.006-.134,0-.067v-.008c0-.021,0,.02,0,.013v-.016l0-.032.021-.26.083-1.044.021-.261.03-.26.06-.519.059-.516.029-.257.038-.255c.1-.678.193-1.345.323-1.984.061-.32.116-.635.178-.941l.2-.894c.12-.582.276-1.123.4-1.625l.1-.368c.033-.118.068-.23.1-.34l.187-.625c.06-.2.109-.375.167-.553l.165-.5.143-.432a.508.508,0,0,0-.352-.651l-3.439-.917A.508.508,0,0,0,1.048,598.035Z" transform="translate(0 -552.732)"/><path class="b" d="M348.734,225.789a7.91,7.91,0,0,0,10.588-3.634,8.3,8.3,0,0,0,.6-1.7l8.007-34.755,3.049-13.236,1.889-8.2a1.3,1.3,0,0,0-1.3-1.6,1.246,1.246,0,0,0-1.144.738l-3.844,7.863-5.671,11.6L345.1,215.2A7.916,7.916,0,0,0,348.734,225.789ZM352.5,214.6a3.88,3.88,0,1,1-3.88,3.88A3.88,3.88,0,0,1,352.5,214.6Z" transform="translate(-308.757 -162.661)"/></g></g></g></svg>