<svg xmlns="http://www.w3.org/2000/svg" viewBox="5765.5 6481.5 169 169"><defs><style>.a{fill:#f3f3f3;}.a,.d{stroke:#000;}.b{fill:#b8b8b8;}.b,.c{stroke:#95989a;}.c,.d{fill:none;}.d{stroke-width:0.25px;}.e{font-size:8px;}.e,.f{font-family:Roboto-Thin, Roboto;font-weight:200;}.f{font-size:5px;}</style></defs><g transform="translate(5370 3337)"><circle class="a" cx="84" cy="84" r="84" transform="translate(396 3145)"/><g transform="translate(55.583 45.5)"><ellipse class="b" cx="28.417" cy="9.854" rx="28.417" ry="9.854" transform="translate(394 3202.292)"/><ellipse class="c" cx="28.417" cy="9.854" rx="28.417" ry="9.854" transform="translate(394 3145)"/><line class="c" y2="57.292" transform="translate(394 3154.854)"/><line class="c" y2="57.292" transform="translate(450.833 3154.854)"/></g><path class="d" d="M0,.4V55.6" transform="translate(439.5 3201.5)"/><path class="d" d="M.5.5H3.328L.5,3.328Z" transform="translate(439.5 3199.293) rotate(45)"/><path class="d" d="M.5.5H3.328L.5,3.328Z" transform="translate(439.5 3259.707) rotate(-135)"/><g transform="matrix(-0.669, 0.743, -0.743, -0.669, 3222.02, 5074.024)"><path class="d" d="M.211.4V14.619" transform="translate(484.5 3239.481)"/><path class="d" d="M.5.5H3.328L.5,3.328Z" transform="translate(484.5 3256.707) rotate(-135)"/></g><text class="e" transform="translate(436 3236) rotate(-90)"><tspan x="0" y="0">150</tspan></text><text class="f" transform="translate(483.056 3257.773) rotate(42)"><tspan x="0" y="0">150</tspan></text></g></svg>