<svg xmlns="http://www.w3.org/2000/svg" viewBox="6725.5 6783.5 169 169"><defs><style>.a{fill:#f3f3f3;stroke:#000;}.b{fill:#95989a;}.c{fill:#b8b8b8;}</style></defs><g transform="translate(5370 3337)"><circle class="a" cx="84" cy="84" r="84" transform="translate(1356 3447)"/><g transform="translate(1427.34 3488.6)"><path class="b" d="M207.967,130.919c-.388-.308-.774-.582-1.115-.908a.53.53,0,0,1-.091-.489,1.356,1.356,0,0,0,0-1.156,1.8,1.8,0,0,1-.054-.647,12.921,12.921,0,0,1,.03-2.167,5.359,5.359,0,0,0,0-1.617,18.273,18.273,0,0,1-.024-2.639c0-.151.091-.3.1-.455a3.308,3.308,0,0,0,0-.647c-.017-.2-.114-.4-.114-.6v-6.374a1.933,1.933,0,0,1,.03-.216h2.488c0,.164.024.328.024.5,0,1.941.047,3.9-.03,5.854a13,13,0,0,0,0,2.277,7.412,7.412,0,0,1,0,2.07,6.779,6.779,0,0,0,0,2.04,14.23,14.23,0,0,1,.024,2.217.729.729,0,0,1-.03.328,1.546,1.546,0,0,0-.017,1.337.5.5,0,0,1-.145.431C208.711,130.349,208.342,130.623,207.967,130.919Zm-.927-17.6v6.344a2.768,2.768,0,0,0,.164.63c.526-.593,1-1.089,1.43-1.634a1.294,1.294,0,0,0,.248-.727c.024-1.386.017-2.773.017-4.159,0-.151-.013-.3-.024-.455Zm.11,11.085c.043.013.084.03.134.043.489-.563,1-1.115,1.464-1.7a2.318,2.318,0,0,0-.084-1.941c-.382.418-.74.862-1.145,1.246-.727.712-.5,1.535-.36,2.352Zm1.641.647-.134-.024c-.466.533-.944,1.054-1.393,1.6a2.115,2.115,0,0,0,.03,2.029c.412-.455.817-.914,1.229-1.369.636-.707.36-1.475.267-2.238Zm-.1,4.1c-.272.52-.862.733-.862,1.38.983-.517,1.141-.746.862-1.376Z" transform="translate(-195.071 -46.387)"/><rect class="c" width="12.726" height="8.485" transform="translate(6.363 61.505)"/><rect class="c" width="25.452" height="63.627"/></g></g></svg>