<svg xmlns="http://www.w3.org/2000/svg" viewBox="5765.5 6481.5 169 169">
  <defs>
    <style>
      .cls-1 {
        fill: #f3f3f3;
      }

      .cls-1, .cls-4 {
        stroke: #000;
      }

      .cls-2 {
        fill: #b8b8b8;
      }

      .cls-2, .cls-3 {
        stroke: #95989a;
      }

      .cls-3, .cls-4 {
        fill: none;
      }

      .cls-4 {
        stroke-width: 0.25px;
      }

      .cls-5 {
        font-size: 8px;
        font-family: Roboto-Thin, Roboto;
        font-weight: 200;
      }
    </style>
  </defs>
  <g id="Work_Area" data-name="Work Area" transform="translate(5370 3337)">
    <circle id="Ellipse_40" data-name="Ellipse 40" class="cls-1" cx="84" cy="84" r="84" transform="translate(396 3145)"/>
    <g id="Group_270" data-name="Group 270" transform="translate(55.583 45.5)">
      <ellipse id="Ellipse_1" data-name="Ellipse 1" class="cls-2" cx="28.417" cy="9.854" rx="28.417" ry="9.854" transform="translate(394 3202.292)"/>
      <ellipse id="Ellipse_39" data-name="Ellipse 39" class="cls-3" cx="28.417" cy="9.854" rx="28.417" ry="9.854" transform="translate(394 3145)"/>
      <line id="Line_147" data-name="Line 147" class="cls-3" y2="57.292" transform="translate(394 3154.854)"/>
      <line id="Line_148" data-name="Line 148" class="cls-3" y2="57.292" transform="translate(450.833 3154.854)"/>
    </g>
    <g id="Group_272" data-name="Group 272">
      <path id="Path_97" data-name="Path 97" class="cls-4" d="M0,.4V55.6" transform="translate(439.5 3201.5)"/>
      <path id="Path_96" data-name="Path 96" class="cls-4" d="M.5.5H3.328L.5,3.328Z" transform="translate(439.5 3199.293) rotate(45)"/>
      <path id="Path_98" data-name="Path 98" class="cls-4" d="M.5.5H3.328L.5,3.328Z" transform="translate(439.5 3259.707) rotate(-135)"/>
    </g>
    <g id="Group_1239" data-name="Group 1239" transform="translate(3706.9 2834) rotate(90)">
      <path id="Path_97-2" data-name="Path 97" class="cls-4" d="M0,.4V54.409" transform="translate(439.5 3201.46)"/>
      <path id="Path_96-2" data-name="Path 96" class="cls-4" d="M.051.051l2.8-.031L.021,2.849Z" transform="translate(439.5 3199.929) rotate(45)"/>
      <path id="Path_98-2" data-name="Path 98" class="cls-4" d="M.051.051l2.8-.031L.021,2.849Z" transform="translate(439.5 3257.8) rotate(-135)"/>
    </g>
    <text id="_150" data-name="150" class="cls-5" transform="translate(436 3236) rotate(-90)"><tspan x="0" y="0">150</tspan></text>
    <text id="_150-2" data-name="150" class="cls-5" transform="translate(471.5 3283.5)"><tspan x="0" y="0">150</tspan></text>
  </g>
</svg>
